<svg xmlns="http://www.w3.org/2000/svg" xmlns:xlink="http://www.w3.org/1999/xlink" width="629.487" height="578.537" viewBox="0 0 629.487 578.537">
  <defs>
    <filter id="Path_7380" x="0" y="39.931" width="629.487" height="503.068" filterUnits="userSpaceOnUse">
      <feOffset dy="10" input="SourceAlpha"/>
      <feGaussianBlur stdDeviation="7.5" result="blur"/>
      <feFlood flood-opacity="0.161"/>
      <feComposite operator="in" in2="blur"/>
      <feComposite in="SourceGraphic"/>
    </filter>
  </defs>
  <g id="Group_44283" data-name="Group 44283" transform="translate(-1037.929 -383.031)">
    <g id="Group_44271" data-name="Group 44271" transform="translate(1060.429 384.031)">
      <g transform="matrix(1, 0, 0, 1, -22.5, -1)" filter="url(#Path_7380)">
        <path id="Path_7380-2" data-name="Path 7380" d="M88.965,354.786c-10.321,16.112-17.9,34-20.837,54.969C57.753,483.79,110.177,570.953,192.6,563.327c46.488-4.3,86.865-34.595,134.213-34.582,50.464.015,95.713,27.255,147.091,20.021,45.218-6.368,88.667-27.122,120.613-59.974,160.5-165.039-49.289-452.14-255.668-367.925-54.783,22.357-98.871,65.27-138.119,108.309C164.4,269.026,117.953,309.536,88.965,354.786Z" transform="translate(-44.32 -53.3)" fill="#d5f0fe" opacity="0.1"/>
      </g>
      <g id="Group_44235" data-name="Group 44235" transform="translate(188.441 108.767)">
        <g id="Group_44233" data-name="Group 44233" transform="translate(227.575)">
          <path id="Path_7381" data-name="Path 7381" d="M326.853,153.867a6.607,6.607,0,1,0-6.607-6.606A6.607,6.607,0,0,0,326.853,153.867Z" transform="translate(-320.246 -140.654)" fill="#3f8ace"/>
          <path id="Path_7382" data-name="Path 7382" d="M326.853,177.494a6.606,6.606,0,1,0-6.607-6.606A6.606,6.606,0,0,0,326.853,177.494Z" transform="translate(-320.246 -125.495)" fill="#3f8ace"/>
          <path id="Path_7383" data-name="Path 7383" d="M326.853,201.122a6.606,6.606,0,1,0-6.607-6.606A6.607,6.607,0,0,0,326.853,201.122Z" transform="translate(-320.246 -110.335)" fill="#3f8ace"/>
        </g>
        <g id="Group_44234" data-name="Group 44234" transform="translate(0 333.276)">
          <path id="Path_7384" data-name="Path 7384" d="M194.827,350.28a6.606,6.606,0,1,0-6.606,6.606A6.607,6.607,0,0,0,194.827,350.28Z" transform="translate(-181.615 -343.674)" fill="#9dbff3"/>
          <path id="Path_7385" data-name="Path 7385" d="M218.454,350.28a6.606,6.606,0,1,0-6.606,6.606A6.607,6.607,0,0,0,218.454,350.28Z" transform="translate(-166.455 -343.674)" fill="#9dbff3"/>
          <path id="Path_7386" data-name="Path 7386" d="M242.082,350.28a6.606,6.606,0,1,0-6.606,6.606A6.607,6.607,0,0,0,242.082,350.28Z" transform="translate(-151.297 -343.674)" fill="#9dbff3"/>
        </g>
      </g>
      <g id="Group_44239" data-name="Group 44239" transform="translate(458.02 275.456)">
        <g id="Group_44236" data-name="Group 44236">
          <rect id="Rectangle_99" data-name="Rectangle 99" width="109.867" height="42.936" rx="3.29" fill="#78c3ff"/>
          <rect id="Rectangle_100" data-name="Rectangle 100" width="92.931" height="6.234" transform="translate(8.468 42.936)" fill="#215191"/>
          <rect id="Rectangle_101" data-name="Rectangle 101" width="94.58" height="17.106" rx="1.507" transform="translate(7.644 6.575)" fill="#56a1de"/>
          <rect id="Rectangle_102" data-name="Rectangle 102" width="30.2" height="4.982" transform="translate(72.023 28.441)" fill="#2f71bd"/>
          <rect id="Rectangle_103" data-name="Rectangle 103" width="10.226" height="4.982" transform="translate(65.327 33.423) rotate(180)" fill="#3f8ace"/>
        </g>
        <g id="Group_44237" data-name="Group 44237" transform="translate(0 49.17)">
          <rect id="Rectangle_104" data-name="Rectangle 104" width="109.867" height="42.937" rx="3.29" fill="#78c3ff"/>
          <rect id="Rectangle_105" data-name="Rectangle 105" width="92.931" height="6.234" transform="translate(8.468 42.937)" fill="#215191"/>
          <rect id="Rectangle_106" data-name="Rectangle 106" width="94.58" height="17.106" rx="1.507" transform="translate(7.644 6.575)" fill="#56a1de"/>
          <rect id="Rectangle_107" data-name="Rectangle 107" width="30.2" height="4.982" transform="translate(72.023 28.441)" fill="#2f71bd"/>
          <rect id="Rectangle_108" data-name="Rectangle 108" width="10.226" height="4.982" transform="translate(65.327 33.423) rotate(180)" fill="#3f8ace"/>
        </g>
        <g id="Group_44238" data-name="Group 44238" transform="translate(0 98.341)">
          <rect id="Rectangle_109" data-name="Rectangle 109" width="109.867" height="42.936" rx="3.29" fill="#78c3ff"/>
          <rect id="Rectangle_110" data-name="Rectangle 110" width="92.931" height="6.234" transform="translate(8.468 42.936)" fill="#215191"/>
          <rect id="Rectangle_111" data-name="Rectangle 111" width="94.58" height="17.106" rx="1.507" transform="translate(7.644 6.575)" fill="#56a1de"/>
          <rect id="Rectangle_112" data-name="Rectangle 112" width="30.2" height="4.982" transform="translate(72.023 28.441)" fill="#2f71bd"/>
          <rect id="Rectangle_113" data-name="Rectangle 113" width="10.226" height="4.982" transform="translate(65.327 33.423) rotate(180)" fill="#3f8ace"/>
        </g>
      </g>
      <g id="Group_44246" data-name="Group 44246" transform="translate(131.75 221.341)">
        <path id="Rectangle_114" data-name="Rectangle 114" d="M7.948,0H231.64a7.948,7.948,0,0,1,7.948,7.948V160a0,0,0,0,1,0,0H0a0,0,0,0,1,0,0V7.948A7.948,7.948,0,0,1,7.948,0Z" transform="translate(35.499 0)" fill="#5ba1d8"/>
        <path id="Path_7387" data-name="Path 7387" d="M395.819,222.956v133.79H174.171V222.956a8.253,8.253,0,0,1,8.257-8.257H387.545A8.267,8.267,0,0,1,395.819,222.956Z" transform="translate(-129.7 -205.722)" fill="#d5edfc"/>
        <path id="Path_7388" data-name="Path 7388" d="M422.168,306.7H182.58l-35.5,22.374H457.667Z" transform="translate(-147.081 -146.697)" fill="#78c3ff"/>
        <path id="Rectangle_115" data-name="Rectangle 115" d="M0,0H310.586a0,0,0,0,1,0,0V10.138A12.767,12.767,0,0,1,297.819,22.9H12.767A12.767,12.767,0,0,1,0,10.138V0A0,0,0,0,1,0,0Z" transform="translate(0 182.372)" fill="#56a1de"/>
        <path id="Path_7389" data-name="Path 7389" d="M231.873,331.778h45.344a5.276,5.276,0,0,0,4.372-2.517l5.872-8.937H221.629l5.87,8.937A5.279,5.279,0,0,0,231.873,331.778Z" transform="translate(-99.251 -137.953)" fill="#3f8ace"/>
        <g id="Group_44245" data-name="Group 44245" transform="translate(77.977 21.499)">
          <rect id="Rectangle_116" data-name="Rectangle 116" width="160.045" height="118.367" transform="translate(0 11.158)" fill="#9dbff3"/>
          <g id="Group_44241" data-name="Group 44241" transform="translate(7.877 50.3)">
            <rect id="Rectangle_117" data-name="Rectangle 117" width="78.87" height="71.373" fill="#56a1de"/>
            <g id="Group_44240" data-name="Group 44240" transform="translate(10.76 9.77)">
              <path id="Path_7390" data-name="Path 7390" d="M260.52,264.452H208.7a2.765,2.765,0,0,1-2.766-2.766h0a2.766,2.766,0,0,1,2.766-2.766H260.52a2.767,2.767,0,0,1,2.766,2.766h0A2.766,2.766,0,0,1,260.52,264.452Z" transform="translate(-205.935 -258.92)" fill="#3f8ace"/>
              <path id="Path_7391" data-name="Path 7391" d="M260.52,273.854H208.7a2.766,2.766,0,0,1-2.766-2.766h0a2.765,2.765,0,0,1,2.766-2.766H260.52a2.766,2.766,0,0,1,2.766,2.766h0A2.767,2.767,0,0,1,260.52,273.854Z" transform="translate(-205.935 -252.888)" fill="#3f8ace"/>
              <path id="Path_7392" data-name="Path 7392" d="M260.52,283.255H208.7a2.766,2.766,0,0,1-2.766-2.766h0a2.765,2.765,0,0,1,2.766-2.766H260.52a2.766,2.766,0,0,1,2.766,2.766h0A2.767,2.767,0,0,1,260.52,283.255Z" transform="translate(-205.935 -246.856)" fill="#3f8ace"/>
              <path id="Path_7393" data-name="Path 7393" d="M260.52,292.656H208.7a2.765,2.765,0,0,1-2.766-2.766h0a2.766,2.766,0,0,1,2.766-2.766H260.52a2.767,2.767,0,0,1,2.766,2.766h0A2.766,2.766,0,0,1,260.52,292.656Z" transform="translate(-205.935 -240.825)" fill="#3f8ace"/>
            </g>
          </g>
          <rect id="Rectangle_118" data-name="Rectangle 118" width="146.152" height="25.512" transform="translate(7.877 17.264)" fill="#fff"/>
          <g id="Group_44243" data-name="Group 44243">
            <rect id="Rectangle_119" data-name="Rectangle 119" width="160.045" height="11.158" fill="#1d598f"/>
            <g id="Group_44242" data-name="Group 44242" transform="translate(6.224 2.566)">
              <path id="Path_7394" data-name="Path 7394" d="M204.4,226.9a3.014,3.014,0,1,0-3.014,3.014A3.014,3.014,0,0,0,204.4,226.9Z" transform="translate(-198.373 -223.89)" fill="#ed7630"/>
              <path id="Path_7395" data-name="Path 7395" d="M211.624,226.9a3.015,3.015,0,1,0-3.014,3.014A3.014,3.014,0,0,0,211.624,226.9Z" transform="translate(-193.74 -223.89)" fill="#f6c543"/>
              <path id="Path_7396" data-name="Path 7396" d="M218.844,226.9a3.014,3.014,0,1,0-3.014,3.014A3.014,3.014,0,0,0,218.844,226.9Z" transform="translate(-189.107 -223.89)" fill="#32ea9f"/>
            </g>
          </g>
          <g id="Group_44244" data-name="Group 44244" transform="translate(95.309 50.302)">
            <rect id="Rectangle_120" data-name="Rectangle 120" width="58.72" height="71.376" fill="#d5edfc"/>
            <path id="Path_7397" data-name="Path 7397" d="M266.5,270.025c3.612-5.122,5.581-11.163,6.813-17.056h-3.332a41.473,41.473,0,0,1-6.172,15.168,23.643,23.643,0,0,1-11.163,8.618v3.431A26.816,26.816,0,0,0,266.5,270.025Zm32.027,45.817a22.053,22.053,0,0,0-2.742,7.732c-.049.263-.115.509-.164.772h3.365c0-.033.016-.049.016-.082a19.346,19.346,0,0,1,2.265-6.616c1.921-2.906,5.483-4.547,8.668-5.844.476-.2.936-.378,1.428-.558v-3.5c-.919.312-1.806.657-2.676,1.018C305.041,310.244,300.953,312.148,298.524,315.842Zm-31.305-26.906c6.172-3.792,14-9.111,19.814-16.629a37.159,37.159,0,0,0,7.9-19.338h-3.316a33.9,33.9,0,0,1-7.174,17.335c-5.5,7.092-13,12.2-18.944,15.841-.936.575-1.9,1.149-2.856,1.74a96.27,96.27,0,0,0-10,6.583v4.3a74.742,74.742,0,0,1,11.688-8.077C265.3,290.1,266.266,289.527,267.218,288.936Zm25.231-.263c-2.791,1.658-5.7,3.25-8.5,4.793-6.14,3.4-12.509,6.895-18.172,11.327a47.362,47.362,0,0,0-13.133,15.234v4.317h1.592c3.185-7.9,9.488-13.789,13.56-16.958,5.466-4.268,11.7-7.715,17.746-11.048,2.824-1.56,5.762-3.168,8.586-4.859,5.171-3.07,11.885-7.5,17.237-13.642v-5.253C306.058,279.99,298.228,285.226,292.45,288.674Zm-8.06,23.031c-3.841,3.907-5.959,8.372-6.09,12.64h3.283c.164-3.4,1.986-7.108,5.155-10.342a48.715,48.715,0,0,1,11.36-8.093c4.3-2.4,8.733-4.613,13.264-6.583v-3.6a157.659,157.659,0,0,0-14.856,7.305A51.739,51.739,0,0,0,284.389,311.705Z" transform="translate(-252.64 -252.969)" fill="#3f8ace"/>
          </g>
        </g>
        <path id="Path_7398" data-name="Path 7398" d="M395.819,222.956v11.311L273.356,356.746H174.171V328.56L288.032,214.7h99.513A8.267,8.267,0,0,1,395.819,222.956Z" transform="translate(-129.7 -205.722)" fill="#fff" opacity="0.4" style="mix-blend-mode: overlay;isolation: isolate"/>
      </g>
      <g id="Group_44248" data-name="Group 44248" transform="translate(190.838 148.62)">
        <path id="Path_7399" data-name="Path 7399" d="M344.374,242.424h-53.02l-11.028,27.92-11.8-27.92h-53.02a32.433,32.433,0,0,1-32.433-32.433V197.364a32.434,32.434,0,0,1,32.433-32.433H344.374a32.434,32.434,0,0,1,32.433,32.433v12.627A32.433,32.433,0,0,1,344.374,242.424Z" transform="translate(-183.075 -164.931)" fill="#3e8ed0"/>
        <g id="Group_44247" data-name="Group 44247" transform="translate(35.76 14.915)">
          <path id="Path_7400" data-name="Path 7400" d="M242.512,212.42H222.358l-3.744,9.26H204.859l21.04-47.664h13.277l21.108,47.664H246.258Zm-3.948-9.941-6.128-15.252-6.13,15.252Z" transform="translate(-204.859 -174.017)" fill="#fff"/>
          <path id="Path_7401" data-name="Path 7401" d="M283.906,191.653c0,10.826-8.169,17.568-21.175,17.568h-8.308v12.46H240.942V174.017h21.789C275.737,174.017,283.906,180.757,283.906,191.653Zm-13.617,0c0-4.426-2.792-7.013-8.377-7.013h-7.489V198.6h7.489C267.5,198.6,270.289,196.009,270.289,191.653Z" transform="translate(-181.708 -174.017)" fill="#fff"/>
          <path id="Path_7402" data-name="Path 7402" d="M271.094,174.017h13.481v47.664H271.094Z" transform="translate(-162.363 -174.017)" fill="#fff"/>
        </g>
      </g>
      <path id="Path_7403" data-name="Path 7403" d="M437.735,351.1v55.831a73.042,73.042,0,0,1-73.043,73.043h0a73.042,73.042,0,0,1-73.043-73.043V340.865" transform="translate(77.424 96.567)" fill="none" stroke="#2f71bd" stroke-linecap="round" stroke-linejoin="round" stroke-width="2" stroke-dasharray="0 4"/>
      <path id="Path_7404" data-name="Path 7404" d="M125.822,203.27V147.44A73.042,73.042,0,0,1,198.865,74.4h0a73.044,73.044,0,0,1,73.044,73.043V213.5" transform="translate(-28.97 -74.397)" fill="none" stroke="#e6f4ff" stroke-linecap="round" stroke-linejoin="round" stroke-width="2" stroke-dasharray="0 4"/>
      <path id="Path_7405" data-name="Path 7405" d="M493.441,251.178h-4.378a30.192,30.192,0,0,0,.923-7.315A28.786,28.786,0,0,0,461.2,215.078a26.285,26.285,0,0,0-4.958.445v-.445A41.7,41.7,0,0,0,373,211.42a37.2,37.2,0,0,0-32.953,36.954c0,.957.033,1.881.1,2.8H336.6a4.745,4.745,0,0,0,0,9.49H493.441a4.745,4.745,0,0,0,0-9.49Z" transform="translate(103.216 -10.895)" fill="#e6f4ff"/>
      <g id="Group_44251" data-name="Group 44251" transform="translate(23.757 141.299)">
        <rect id="Rectangle_121" data-name="Rectangle 121" width="123.806" height="208.073" rx="9.446" fill="#78c3ff"/>
        <rect id="Rectangle_122" data-name="Rectangle 122" width="191.656" height="107.391" rx="4.446" transform="translate(115.599 8.208) rotate(90)" fill="#fff"/>
        <g id="Group_44250" data-name="Group 44250" transform="translate(4.23 46.363)">
          <g id="Group_44249" data-name="Group 44249" transform="translate(0 0)">
            <circle id="Ellipse_1" data-name="Ellipse 1" cx="44.079" cy="44.079" r="44.079" transform="matrix(0.923, -0.386, 0.386, 0.923, 0, 34.015)" fill="#5fa5de"/>
            <circle id="Ellipse_2" data-name="Ellipse 2" cx="35.997" cy="35.997" r="35.997" transform="translate(12.11 34.968) rotate(-18.511)" fill="#fff"/>
          </g>
          <path id="Path_7406" data-name="Path 7406" d="M118.727,252.084h-.038a3.276,3.276,0,0,1-2.622-1.359l-9.085-12.557a3.283,3.283,0,1,1,5.319-3.85l6.489,8.97,23.184-30.512a3.283,3.283,0,1,1,5.228,3.973l-25.862,34.038A3.286,3.286,0,0,1,118.727,252.084Z" transform="translate(-69.444 -174.108)" fill="#32ea9f"/>
        </g>
      </g>
      <g id="Group_44253" data-name="Group 44253" transform="translate(31.853 368.751)">
        <path id="Path_7407" data-name="Path 7407" d="M118.172,303.459h0a4.433,4.433,0,0,0-4.432-4.432H90.659a4.433,4.433,0,0,0-4.432,4.432v70.684h93.451V314.619a6.728,6.728,0,0,0-6.727-6.727H122.6A4.432,4.432,0,0,1,118.172,303.459Z" transform="translate(-86.227 -299.027)" fill="#5ba1d9"/>
        <g id="Group_44252" data-name="Group 44252" transform="translate(0 16.326)">
          <path id="Path_7408" data-name="Path 7408" d="M86.227,367.762l7.834-53.046a6.727,6.727,0,0,1,6.653-5.744h80.011a6.726,6.726,0,0,1,6.652,7.73l-7.7,51.06Z" transform="translate(-86.227 -308.972)" fill="#78c3ff"/>
        </g>
      </g>
      <path id="Path_7409" data-name="Path 7409" d="M393.941,131.067a39.171,39.171,0,1,0,39.171,39.171A39.171,39.171,0,0,0,393.941,131.067Zm-10.081,3.719a30.413,30.413,0,0,0-4.875,7.151,46.535,46.535,0,0,0-2.415,5.735c-.318-.176-.633-.354-.945-.538q-.355-.21-.7-.428a38,38,0,0,1-5.388-4.055A36.681,36.681,0,0,1,383.861,134.786ZM367.586,144.5a40.532,40.532,0,0,0,6.039,4.561c.259.161.5.307.741.446q.678.4,1.369.77a70.23,70.23,0,0,0-2.69,18.608H357.111A36.5,36.5,0,0,1,367.586,144.5Zm-10.468,27.131h15.928a70.272,70.272,0,0,0,2.689,18.512c-.459.247-.916.529-1.366.794-.238.139-.49.3-.743.461a40.261,40.261,0,0,0-6.077,4.549A36.673,36.673,0,0,1,357.118,171.633ZM369.5,197.862a37.732,37.732,0,0,1,5.424-4.09c.233-.146.468-.288.7-.428.312-.185.627-.363.945-.538a46.611,46.611,0,0,0,2.415,5.733,30.357,30.357,0,0,0,4.884,7.16A36.678,36.678,0,0,1,369.5,197.862Zm23,9.2c-.249,0-.194-.006-.288-.011-.945-.044-1.9-.127-2.835-.244-3.169-1.628-6.095-4.945-8.5-9.73a43.842,43.842,0,0,1-2.232-5.334,37.292,37.292,0,0,1,8.13-2.773c.256-.056.52-.11.8-.164a35.882,35.882,0,0,1,4.929-.619Zm0-21.544a37.156,37.156,0,0,0-5.354.651c-.253.047-.53.1-.841.169a39.868,39.868,0,0,0-8.482,2.769,68.023,68.023,0,0,1-2.519-17.474h17.2Zm0-16.632H375.3a68.071,68.071,0,0,1,2.52-17.57,39.842,39.842,0,0,0,8.479,2.821c.31.066.589.122.84.169a37.017,37.017,0,0,0,5.357.651Zm0-16.6a35.877,35.877,0,0,1-4.929-.619c-.279-.054-.541-.108-.8-.164a37.368,37.368,0,0,1-8.13-2.772,44.253,44.253,0,0,1,2.232-5.336c2.406-4.784,5.331-8.1,8.5-9.73.94-.116,1.892-.2,2.841-.244.092,0,.033-.006.282-.009Zm38.278,16.6H414.837a72.16,72.16,0,0,0-2.481-17.87q.721-.348,1.427-.726c.268-.145.517-.282.755-.416a40.334,40.334,0,0,0,6.513-4.575A36.784,36.784,0,0,1,430.772,168.887Zm-11.615-25.5a37.97,37.97,0,0,1-5.837,4.085c-.259.148-.494.277-.719.4-.343.185-.69.363-1.038.536a47.255,47.255,0,0,0-2.668-6.473,30.357,30.357,0,0,0-4.879-7.157A36.6,36.6,0,0,1,419.156,143.391Zm-23.916-9.978s.276.008.387.014c.944.042,1.919.127,2.861.244,3.169,1.627,6.119,4.944,8.524,9.728a44.542,44.542,0,0,1,2.454,5.98,37.4,37.4,0,0,1-8.285,2.436c-.249.044-.56.086-.847.128a37.738,37.738,0,0,1-5.095.408Zm0,21.6a42.856,42.856,0,0,0,5.445-.425c.327-.048.622-.09.865-.134a39.959,39.959,0,0,0,8.686-2.492,68.555,68.555,0,0,1,2.35,16.924H395.24Zm0,16.62h17.343a68.49,68.49,0,0,1-2.333,16.828,39.87,39.87,0,0,0-8.669-2.466c-.246-.042-.566-.071-.895-.119a42.548,42.548,0,0,0-5.445-.413Zm3.243,35.175c-.94.118-1.913.2-2.862.244-.108.006-.381.008-.381.012V188.128a38.055,38.055,0,0,1,5.1.407c.28.042.566.084.823.13a37.432,37.432,0,0,1,8.293,2.434,44.541,44.541,0,0,1-2.446,5.98C404.6,201.863,401.652,205.18,398.483,206.808Zm5.53-1.109a30.307,30.307,0,0,0,4.882-7.16,47.255,47.255,0,0,0,2.668-6.473c.35.175.7.352,1.039.538.223.119.458.249.717.4a37.839,37.839,0,0,1,5.878,4.121A36.667,36.667,0,0,1,404.013,205.7Zm17.075-10.543a40.053,40.053,0,0,0-6.548-4.554c-.238-.134-.485-.27-.756-.416-.472-.252-.946-.548-1.427-.78a70.436,70.436,0,0,0,2.478-17.774h15.93A36.392,36.392,0,0,1,421.087,195.156Z" transform="translate(124.954 -70.529)" fill="#e6f4ff"/>
      <path id="Path_7410" data-name="Path 7410" d="M154.375,385.277c-.03-.276-.067-.552-.11-.826s-.092-.55-.148-.822l-.09-.409c-.062-.272-.133-.545-.21-.814a17.4,17.4,0,0,0-9.324-10.969l0,0c-.179-.084-.359-.164-.538-.241s-.337-.141-.509-.21c-.519-.2-1.054-.381-1.594-.534-.268-.076-.538-.144-.809-.208s-.545-.118-.816-.168l-.414-.069a17.273,17.273,0,0,0-2.4-.207,17.592,17.592,0,0,0-2.4.125q-.478.059-.955.143a17.367,17.367,0,0,0-14.293,17.3c0,.415.026.832.061,1.249l.039.415c.031.276.067.55.11.826a17.674,17.674,0,0,0,.568,2.449c.084.268.172.534.269.8a17.406,17.406,0,0,0,10.383,10.363q.4.145.8.268c.4.123.8.233,1.212.327.274.064.547.12.817.169l.414.069c.274.043.55.079.826.108q.618.067,1.246.09c.207.007.415.01.622.01h.21a17.872,17.872,0,0,0,2.075-.149c.277-.038.553-.08.829-.13s.548-.107.819-.169c.409-.1.816-.205,1.216-.33a17.191,17.191,0,0,0,6.676-3.876,17.4,17.4,0,0,0,2.8-3.355c.154-.241.3-.486.445-.734.213-.371.41-.747.594-1.133q.18-.379.343-.768c.074-.174.143-.35.207-.52.133-.351.256-.7.366-1.059q.126-.4.228-.808c.056-.217.105-.433.153-.65.041-.192.08-.384.115-.575.025-.14.049-.279.069-.412.043-.276.08-.552.108-.824l.041-.419c.023-.276.039-.553.049-.834l.01-.412c.007-.557-.013-1.116-.061-1.666Zm-1.988,2.425c-.01.245-.025.489-.044.729l-.034.369c-.026.243-.059.484-.1.732-.016.118-.038.238-.059.358-.031.169-.066.34-.1.509-.041.189-.084.378-.133.568-.061.236-.126.473-.2.708-.1.313-.2.624-.323.936-.059.153-.117.305-.181.455-.1.23-.2.458-.3.681-.161.335-.337.668-.522.993-.123.218-.253.432-.391.645a15.342,15.342,0,0,1-8.343,6.366c-.353.11-.711.207-1.07.289-.24.056-.479.105-.719.149s-.484.082-.729.113a15.5,15.5,0,0,1-1.83.133c-.245,0-.489,0-.732-.01-.366-.013-.732-.038-1.1-.079-.243-.026-.486-.057-.727-.1l-.363-.061q-.364-.066-.719-.148c-.358-.084-.716-.179-1.069-.289-.235-.072-.468-.149-.7-.233a15.325,15.325,0,0,1-9.135-9.122c-.085-.233-.164-.468-.238-.7a15.265,15.265,0,0,1-.5-2.155c-.039-.243-.071-.488-.1-.731l-.036-.364c-.031-.366-.048-.734-.053-1.1a15.26,15.26,0,0,1,12.58-15.229q.419-.076.842-.126a15.143,15.143,0,0,1,1.852-.113c.087,0,.177,0,.266,0a15.42,15.42,0,0,1,2.109.181l.364.062c.241.044.481.092.719.148s.478.117.712.184a14.549,14.549,0,0,1,1.4.468c.149.059.3.122.453.186s.317.14.476.213a15.309,15.309,0,0,1,8.206,9.654c.067.236.13.474.184.712l.08.361c.049.241.092.483.13.727s.072.486.1.729l.034.364c.041.483.059.975.053,1.471Zm29.908-7.418a3.726,3.726,0,0,0-2.613-1.192l-5.933-.205a31.213,31.213,0,0,0-3.433-9.428l4.331-4.032a3.97,3.97,0,0,0,.215-5.465l-8-8.587a2.885,2.885,0,0,0-2.669-.919,4.641,4.641,0,0,0-2.324,1.251l-4.345,4.045a32.961,32.961,0,0,0-9.4-4.441l.031-6.143a3.759,3.759,0,0,0-3.621-3.884l-11.729-.417a3.789,3.789,0,0,0-3.892,3.625l-.227,5.988a31.784,31.784,0,0,0-9.564,3.526l-4.032-4.331a3.187,3.187,0,0,0-2.5-1.1,3.787,3.787,0,0,0-2.438,1.1l-8.587,8a3.176,3.176,0,0,0-.2,4.789l4.045,4.345a32.2,32.2,0,0,0-4.345,9.311l-6.053-.1a3.757,3.757,0,0,0-3.879,3.628l-.4,11.741a3.787,3.787,0,0,0,3.638,3.917l6.107.269A34,34,0,0,0,104.2,405.4l-4.329,4.032c-1.656,1.543-1.858,3.313-.537,4.733l8,8.587a3.782,3.782,0,0,0,5.315.4l4.345-4.047a30.476,30.476,0,0,0,9.116,4.158l-.258,5.87a3.764,3.764,0,0,0,3.625,3.884l11.734.409c.046,0,.092,0,.138,0a3.786,3.786,0,0,0,3.767-3.635l.25-6.051a33.117,33.117,0,0,0,9.71-3.625l4.032,4.331c1.363,1.464,3.669,2.223,5.26.742l8.587-8c1.583-1.473,1.2-4.093-.126-5.521l-4.071-4.373a40.956,40.956,0,0,0,4.271-9.18l5.967.187a3.755,3.755,0,0,0,3.889-3.618l.42-11.723A3.724,3.724,0,0,0,182.295,380.283Zm-1.5,14.339a1.668,1.668,0,0,1-.534,1.166,1.688,1.688,0,0,1-1.207.448l-6.775-.212a.991.991,0,0,0-1.034.757,38.326,38.326,0,0,1-4.682,10.083,1.078,1.078,0,0,0,.133,1.3l4.6,4.938a2.006,2.006,0,0,1,.233,2.582l-8.589,7.995c-.637.593-1.74-.015-2.32-.637l-4.6-4.936a1.036,1.036,0,0,0-1.292-.186,31.064,31.064,0,0,1-10.508,3.943,1.042,1.042,0,0,0-.627.389l-.077.1a1.042,1.042,0,0,0-.212.588l-.277,6.785a1.682,1.682,0,0,1-.543,1.175,1.627,1.627,0,0,1-1.212.456l-11.734-.41a1.676,1.676,0,0,1-1.62-1.722l.294-6.68a1.04,1.04,0,0,0-.758-1.047,29.253,29.253,0,0,1-9.96-4.562,1.008,1.008,0,0,0-.593-.187,1.105,1.105,0,0,0-.745.292l-4.938,4.6a1.719,1.719,0,0,1-2.375-.3l-8-8.587c-.274-.3-.693-.745.433-1.793l4.936-4.6a1.043,1.043,0,0,0,.185-1.294,31.711,31.711,0,0,1-4.027-10.6,1.045,1.045,0,0,0-.346-.593l-.144-.121a1.035,1.035,0,0,0-.627-.246l-6.808-.3a1.728,1.728,0,0,1-1.643-1.765l.405-11.741a1.684,1.684,0,0,1,.532-1.172,1.646,1.646,0,0,1,1.215-.448l6.865.118a1.008,1.008,0,0,0,1.019-.758,30.271,30.271,0,0,1,4.747-10.135,1.073,1.073,0,0,0-.105-1.338l-4.6-4.938a1.116,1.116,0,0,1,.092-1.848l8.587-8a1.781,1.781,0,0,1,1.088-.537,1.136,1.136,0,0,1,.909.442l4.6,4.938a1.036,1.036,0,0,0,1.292.184,30.394,30.394,0,0,1,10.411-3.853,1.17,1.17,0,0,0,.763-.621,1.054,1.054,0,0,0,.1-.417l.254-6.757a1.674,1.674,0,0,1,1.742-1.62l11.729.415a1.685,1.685,0,0,1,1.615,1.763l-.038,6.96a1.041,1.041,0,0,0,.758,1.006,30.871,30.871,0,0,1,10.216,4.839,1.073,1.073,0,0,0,1.338-.105l4.938-4.6a2.66,2.66,0,0,1,1.256-.722.809.809,0,0,1,.8.286l7.995,8.589a1.882,1.882,0,0,1-.108,2.525l-4.938,4.6a1.039,1.039,0,0,0-.186,1.294,29.935,29.935,0,0,1,3.771,10.321,1.033,1.033,0,0,0,.757.795,1.081,1.081,0,0,0,.353.031l6.622.228a1.668,1.668,0,0,1,1.61,1.73ZM165.77,384.039c-.051-.46-.11-.918-.182-1.374s-.154-.913-.248-1.366c-.048-.227-.1-.455-.149-.681-.105-.451-.22-.9-.348-1.349a28.878,28.878,0,0,0-15.483-18.21v0q-.446-.207-.9-.4c-.279-.12-.561-.238-.845-.346-.863-.338-1.753-.637-2.643-.888-.445-.125-.895-.24-1.346-.345s-.9-.2-1.358-.279c-.228-.041-.455-.079-.683-.115a29.1,29.1,0,0,0-3.979-.343,30.037,30.037,0,0,0-3.992.207c-.53.064-1.06.144-1.587.238A28.829,28.829,0,0,0,108.3,387.509c.008.693.041,1.39.1,2.072.02.231.041.461.067.689.049.46.11.919.181,1.376a29.038,29.038,0,0,0,.944,4.066q.207.667.448,1.328a28.892,28.892,0,0,0,17.237,17.209c.437.159.878.307,1.32.443.662.2,1.34.387,2.014.543.451.1.9.2,1.358.279.227.041.455.079.683.115.458.071.914.131,1.372.181.683.074,1.379.123,2.068.149q.52.017,1.039.018l.345,0a29.051,29.051,0,0,0,3.449-.25c.458-.061.916-.131,1.371-.215s.909-.176,1.363-.281c.676-.158,1.356-.341,2.019-.547a28.528,28.528,0,0,0,11.082-6.435,28.867,28.867,0,0,0,4.652-5.57c.258-.4.5-.808.739-1.218.348-.609.678-1.241.982-1.876q.305-.635.573-1.282c.121-.286.235-.575.346-.867q.332-.872.606-1.758.207-.665.379-1.338.135-.534.251-1.075c.069-.319.135-.637.192-.957.041-.228.08-.458.115-.683q.106-.685.181-1.369c.026-.231.048-.461.067-.693q.057-.687.082-1.379c.008-.231.013-.463.015-.691.012-.911-.021-1.842-.1-2.763C165.818,384.5,165.8,384.269,165.77,384.039Zm-1.929,4.07q-.025.643-.077,1.284c-.018.212-.038.423-.061.637-.046.425-.1.85-.169,1.279-.033.21-.069.42-.107.629-.054.3-.113.594-.177.888-.072.333-.149.667-.235,1q-.16.625-.351,1.243c-.167.548-.356,1.092-.561,1.63-.1.269-.208.538-.32.8-.167.4-.343.8-.532,1.189-.281.589-.588,1.174-.911,1.738-.218.381-.445.757-.685,1.129a26.821,26.821,0,0,1-4.317,5.171,26.478,26.478,0,0,1-10.281,5.97c-.617.19-1.248.361-1.873.507-.42.1-.84.184-1.264.261s-.847.143-1.272.2a27.378,27.378,0,0,1-3.2.231q-.64.007-1.284-.016c-.639-.023-1.285-.069-1.919-.138q-.64-.069-1.274-.167c-.21-.033-.424-.069-.634-.107-.424-.077-.842-.163-1.261-.259-.627-.144-1.254-.313-1.868-.5-.41-.126-.821-.263-1.225-.409a26.816,26.816,0,0,1-15.992-15.968c-.148-.407-.287-.818-.415-1.231a26.8,26.8,0,0,1-.875-3.772c-.067-.425-.123-.85-.169-1.279-.023-.212-.043-.423-.061-.637-.054-.634-.084-1.28-.092-1.924A26.722,26.722,0,0,1,132.39,360.83c.491-.087.98-.159,1.472-.22a27.188,27.188,0,0,1,3.247-.2c.153,0,.305,0,.46,0a27.247,27.247,0,0,1,3.694.317q.318.052.635.108c.422.076.84.163,1.259.258s.834.205,1.249.322c.826.233,1.651.509,2.453.822.263.1.522.21.783.322.279.12.558.245.834.374a26.815,26.815,0,0,1,14.367,16.892q.175.625.322,1.256c.049.208.1.417.138.629q.131.633.23,1.269t.169,1.277c.023.212.044.425.062.639.071.857.1,1.719.09,2.567C163.853,387.683,163.848,387.9,163.842,388.108Z" transform="translate(-51.483 96.566)" fill="#3f8ace"/>
      <g id="Group_44254" data-name="Group 44254" transform="translate(72.048 307.358)">
        <line id="Line_11" data-name="Line 11" y1="55.992" transform="translate(13.485)" fill="none" stroke="#fff" stroke-linecap="round" stroke-linejoin="round" stroke-width="2"/>
        <line id="Line_12" data-name="Line 12" y1="42.595" transform="translate(0 18.442)" fill="none" stroke="#fff" stroke-linecap="round" stroke-linejoin="round" stroke-width="2"/>
        <line id="Line_13" data-name="Line 13" y1="59.26" transform="translate(24.997 8.352)" fill="none" stroke="#fff" stroke-linecap="round" stroke-linejoin="round" stroke-width="2"/>
      </g>
      <g id="Group_44255" data-name="Group 44255" transform="translate(502.88 209.035)">
        <line id="Line_14" data-name="Line 14" y1="55.992" transform="translate(13.485)" fill="none" stroke="#fff" stroke-linecap="round" stroke-linejoin="round" stroke-width="2"/>
        <line id="Line_15" data-name="Line 15" y1="42.595" transform="translate(0 18.442)" fill="none" stroke="#fff" stroke-linecap="round" stroke-linejoin="round" stroke-width="2"/>
        <line id="Line_16" data-name="Line 16" y1="59.26" transform="translate(24.997 8.352)" fill="none" stroke="#fff" stroke-linecap="round" stroke-linejoin="round" stroke-width="2"/>
      </g>
      <g id="Group_44262" data-name="Group 44262" transform="translate(170.015 55.222)">
        <g id="Group_44256" data-name="Group 44256" transform="translate(90.717 465.412)">
          <line id="Line_17" data-name="Line 17" y2="12.411" transform="translate(6.205)" fill="none" stroke="#3f8ace" stroke-linecap="round" stroke-linejoin="round" stroke-width="2"/>
          <line id="Line_18" data-name="Line 18" x1="12.41" transform="translate(0 6.205)" fill="none" stroke="#3f8ace" stroke-linecap="round" stroke-linejoin="round" stroke-width="2"/>
        </g>
        <g id="Group_44257" data-name="Group 44257" transform="translate(177.998 56.598)">
          <line id="Line_19" data-name="Line 19" y2="12.411" transform="translate(6.205)" fill="none" stroke="#3f8ace" stroke-linecap="round" stroke-linejoin="round" stroke-width="2"/>
          <line id="Line_20" data-name="Line 20" x1="12.41" transform="translate(0 6.205)" fill="none" stroke="#3f8ace" stroke-linecap="round" stroke-linejoin="round" stroke-width="2"/>
        </g>
        <g id="Group_44258" data-name="Group 44258" transform="translate(281.799 393.427)">
          <line id="Line_21" data-name="Line 21" y2="12.411" transform="translate(6.205)" fill="none" stroke="#3f8ace" stroke-linecap="round" stroke-linejoin="round" stroke-width="2"/>
          <line id="Line_22" data-name="Line 22" x1="12.411" transform="translate(0 6.205)" fill="none" stroke="#3f8ace" stroke-linecap="round" stroke-linejoin="round" stroke-width="2"/>
        </g>
        <g id="Group_44259" data-name="Group 44259" transform="translate(0 32.3)">
          <line id="Line_23" data-name="Line 23" y2="12.41" transform="translate(6.205)" fill="none" stroke="#9dbff3" stroke-linecap="round" stroke-linejoin="round" stroke-width="2"/>
          <line id="Line_24" data-name="Line 24" x1="12.41" transform="translate(0 6.205)" fill="none" stroke="#9dbff3" stroke-linecap="round" stroke-linejoin="round" stroke-width="2"/>
        </g>
        <g id="Group_44260" data-name="Group 44260" transform="translate(384.023 422.289)">
          <line id="Line_25" data-name="Line 25" y2="12.411" transform="translate(6.205)" fill="none" stroke="#9dbff3" stroke-linecap="round" stroke-linejoin="round" stroke-width="2"/>
          <line id="Line_26" data-name="Line 26" x1="12.41" transform="translate(0 6.205)" fill="none" stroke="#9dbff3" stroke-linecap="round" stroke-linejoin="round" stroke-width="2"/>
        </g>
        <g id="Group_44261" data-name="Group 44261" transform="translate(275.594)">
          <line id="Line_27" data-name="Line 27" y2="12.41" transform="translate(6.205)" fill="none" stroke="#9dbff3" stroke-linecap="round" stroke-linejoin="round" stroke-width="2"/>
          <line id="Line_28" data-name="Line 28" x1="12.411" transform="translate(0 6.205)" fill="none" stroke="#9dbff3" stroke-linecap="round" stroke-linejoin="round" stroke-width="2"/>
        </g>
      </g>
      <path id="Path_7411" data-name="Path 7411" d="M301.542,340.865V407.07a56.8,56.8,0,0,0,56.8,56.806h0a56.806,56.806,0,0,0,56.806-56.806V340.865" transform="translate(83.77 96.567)" fill="none" stroke="#2f71bd" stroke-linecap="round" stroke-linejoin="round" stroke-width="2"/>
      <path id="Path_7412" data-name="Path 7412" d="M249.324,207.074v-66.2a56.805,56.805,0,0,0-56.806-56.806h0a56.8,56.8,0,0,0-56.8,56.806v66.2" transform="translate(-22.624 -68.194)" fill="none" stroke="#e6f4ff" stroke-linecap="round" stroke-linejoin="round" stroke-width="2"/>
      <g id="Group_44264" data-name="Group 44264" transform="translate(204.318 45.774)">
        <rect id="Rectangle_123" data-name="Rectangle 123" width="77.241" height="63.204" rx="7.523" transform="translate(0)" fill="#ed7630"/>
        <g id="Group_44263" data-name="Group 44263" transform="translate(14.235 15.949)">
          <path id="Path_7413" data-name="Path 7413" d="M219.631,130.632l-11.066,4.056,11.066,4.022v4.153l-15.82-6.015v-4.322l15.82-6.015Z" transform="translate(-203.811 -118.337)" fill="#fff"/>
          <path id="Path_7414" data-name="Path 7414" d="M224.99,121.532h4.619l-10.967,31.305h-4.619Z" transform="translate(-197.259 -121.532)" fill="#fff"/>
          <path id="Path_7415" data-name="Path 7415" d="M239.7,132.527v4.322l-15.818,6.015v-4.153l11.068-4.022-11.068-4.056v-4.12Z" transform="translate(-190.932 -118.337)" fill="#fff"/>
        </g>
      </g>
      <g id="Group_44274" data-name="Group 44274" transform="translate(390.609 104.115)">
        <rect id="Rectangle_123-2" data-name="Rectangle 123" width="77.241" height="63.204" rx="7.523" transform="translate(0)" fill="#81bc06"/>
        <g id="Group_44272" data-name="Group 44272" transform="translate(15.933 20.9)">
          <path id="Path_7421" data-name="Path 7421" d="M806.72,203.582a9.717,9.717,0,0,1-3.311-.738q-8.98-2.986-17.958-5.98a3.674,3.674,0,0,1-.926-.456.614.614,0,0,1,.012-1.129,3.716,3.716,0,0,1,.991-.469q9.59-2.889,19.186-5.759a7.353,7.353,0,0,1,4.321.014q9.546,2.867,19.093,5.735a3.887,3.887,0,0,1,1.049.5.611.611,0,0,1,0,1.111,3.566,3.566,0,0,1-.9.447q-9.547,3.185-19.1,6.351A7.187,7.187,0,0,1,806.72,203.582Z" transform="translate(-784.159 -188.734)" fill="#fff"/>
          <path id="Path_7422" data-name="Path 7422" d="M878.068,282.3c.006.129.012.2.012.279q0,4.243,0,8.485a1.309,1.309,0,0,1-.364.98,10.429,10.429,0,0,1-1.5,1.282,17.242,17.242,0,0,1-5.683,2.231,27.379,27.379,0,0,1-14.747-.611A14.071,14.071,0,0,1,852,293.124a7.811,7.811,0,0,1-.755-.614,2.209,2.209,0,0,1-.77-1.775c.037-2.665.014-5.332.015-8v-.44c.3.1.565.182.827.269,3.5,1.162,7.006,2.318,10.5,3.492a7.514,7.514,0,0,0,4.908.007q5.465-1.827,10.935-3.637C877.786,282.387,877.908,282.35,878.068,282.3Z" transform="translate(-841.595 -269.766)" fill="#fff"/>
          <path id="Path_7423" data-name="Path 7423" d="M1082.545,266.643v.437c0,1.9-.007,3.792.008,5.688a1.759,1.759,0,0,0,.178.735,12.5,12.5,0,0,1,1.145,2.923,2.641,2.641,0,0,1-.486,2.181,5.18,5.18,0,0,1-1.6,1.408.326.326,0,0,1-.263.043,4.237,4.237,0,0,1-2.159-2.48,2.571,2.571,0,0,1,.113-1.6c.327-.858.716-1.691,1.067-2.54a1.614,1.614,0,0,0,.144-.584q.017-2.633,0-5.265a.387.387,0,0,1,.329-.454C1081.52,267,1082,266.822,1082.545,266.643Z" transform="translate(-1039.766 -256.209)" fill="#fff"/>
        </g>
      </g>
      <g id="Group_44275" data-name="Group 44275" transform="translate(162.563 491.716)">
        <rect id="Rectangle_123-3" data-name="Rectangle 123" width="77.241" height="63.204" rx="7.523" transform="translate(0)" fill="#aa2e80"/>
      </g>
      <g id="Group_44270" data-name="Group 44270" transform="translate(330.453 441.437)">
        <rect id="Rectangle_124" data-name="Rectangle 124" width="77.241" height="63.204" rx="7.523" fill="#f5c544"/>
        <g id="Group_44269" data-name="Group 44269" transform="translate(12.017 9.845)">
          <g id="Group_44267" data-name="Group 44267">
            <g id="Group_44265" data-name="Group 44265">
              <path id="Path_7416" data-name="Path 7416" d="M280.367,374.393c1.489.511,2.185,1.487,2.185,3.812v11.483c0,2.37,1.116,3.718,3.533,3.718h1.256v2.743h-1.72c-4.183,0-6.369-2.045-6.369-6.182v-11.81c0-1.673-.744-2.37-2.091-2.37h-1.581V373h1.581c1.348,0,2.091-.7,2.091-2.37v-11.81c0-4.137,2.187-6.182,6.369-6.182h1.72v2.743h-1.256c-2.416,0-3.533,1.348-3.533,3.718v11.483C282.551,372.9,281.855,373.88,280.367,374.393Z" transform="translate(-275.578 -352.635)" fill="#fff"/>
            </g>
            <g id="Group_44266" data-name="Group 44266" transform="translate(42.402)">
              <path id="Path_7417" data-name="Path 7417" d="M306.2,370.579V359.1c0-2.37-1.116-3.718-3.533-3.718h-1.256v-2.743h1.72c4.184,0,6.369,2.045,6.369,6.182v11.81c0,1.673.744,2.37,2.091,2.37h1.581v2.789h-1.581c-1.348,0-2.091.7-2.091,2.37v11.81c0,4.137-2.185,6.182-6.369,6.182h-1.72v-2.743h1.256c2.416,0,3.533-1.348,3.533-3.718V378.2c0-2.324.7-3.3,2.185-3.812C306.894,373.88,306.2,372.9,306.2,370.579Z" transform="translate(-301.408 -352.635)" fill="#fff"/>
            </g>
          </g>
          <g id="Group_44268" data-name="Group 44268" transform="translate(12.964 29.156)">
            <path id="Path_7418" data-name="Path 7418" d="M298.173,372.451a2.055,2.055,0,1,0,2.055-2.055A2.055,2.055,0,0,0,298.173,372.451Z" transform="translate(-274.045 -370.396)" fill="#fff"/>
            <path id="Path_7419" data-name="Path 7419" d="M290.824,372.451a2.054,2.054,0,1,0,2.055-2.055A2.054,2.054,0,0,0,290.824,372.451Z" transform="translate(-278.76 -370.396)" fill="#fff"/>
            <path id="Path_7420" data-name="Path 7420" d="M283.475,372.451a2.054,2.054,0,1,0,2.054-2.055A2.053,2.053,0,0,0,283.475,372.451Z" transform="translate(-283.475 -370.396)" fill="#fff"/>
          </g>
        </g>
      </g>
    </g>
    <g id="Group_44273" data-name="Group 44273" transform="translate(1244.943 888.376)">
      <path id="Path_7424" data-name="Path 7424" d="M1006.494-26.312c6.619-1.575,10.643-5.57,11.673-12.436.145.172.252.3.36.426q5.329,6.2,10.659,12.393,2.378,2.764,4.755,5.529a.472.472,0,0,1,.081.357,15.6,15.6,0,0,1-6.863,9.918,36.2,36.2,0,0,1-4.583,2.558c-.176.084-.256.022-.361-.1-2.455-2.811-4.952-5.586-7.357-8.438-2.766-3.281-5.451-6.631-8.17-9.951C1006.627-26.128,1006.573-26.207,1006.494-26.312Z" transform="translate(-1006.151 38.748)" fill="#fff"/>
      <path id="Path_7425" data-name="Path 7425" d="M1000.234,212.592q.869,1.037,1.738,2.074,5.136,6.114,10.27,12.23c1.137,1.358,2.244,2.741,3.356,4.12a.587.587,0,0,1,.109.361c-.033.956-.1,1.911-.12,2.867-.022.912,0,1.825,0,2.8-.089-.1-.155-.178-.216-.255-2.79-3.554-5.591-7.1-8.367-10.665-2.226-2.859-4.422-5.742-6.635-8.611a.857.857,0,0,1-.2-.566c.01-1.347,0-2.694,0-4.041v-.292Z" transform="translate(-1000.169 -198.945)" fill="#fff"/>
      <path id="Path_7426" data-name="Path 7426" d="M1319.955,30.684a20.684,20.684,0,0,1-3.7,4.792,28.479,28.479,0,0,1-8.742,5.686c-1.308.561-2.666,1.007-4,1.5-.106.039-.217.063-.326.094l-.044-.07a6.239,6.239,0,0,1,.741-.611c.54-.325,1.1-.61,1.662-.908a20.241,20.241,0,0,0,7.968-7.16,15.478,15.478,0,0,0,2.026-5.251.432.432,0,0,0-.111-.411q-3.5-4.056-6.989-8.115-2.356-2.73-4.728-5.447c-.041-.047-.079-.1-.157-.193l1.257-1.565Z" transform="translate(-1286.687 -10.218)" fill="#fff"/>
      <path id="Path_7427" data-name="Path 7427" d="M1319.009,486.035a3.125,3.125,0,0,1,.038,1.464c-.15.835-.329,1.664-.512,2.492-.018.082-.14.171-.233.2-2.019.7-4.041,1.4-6.06,2.1a75.674,75.674,0,0,0-10.09,4.118c-.054.028-.114.044-.235.09a9.543,9.543,0,0,1-.124-1.035c-.009-.7.012-1.41.04-2.114,0-.075.123-.182.211-.213q2.054-.728,4.114-1.437a87.269,87.269,0,0,0,8.546-3.252,28.985,28.985,0,0,0,4.108-2.3C1318.871,486.116,1318.932,486.082,1319.009,486.035Z" transform="translate(-1285.414 -457.541)" fill="#fff"/>
      <path id="Path_7428" data-name="Path 7428" d="M1320.946,393.858a20.375,20.375,0,0,1-3.146,2.993,33.4,33.4,0,0,1-8.739,4.71,52.412,52.412,0,0,1-5.737,1.783,1.316,1.316,0,0,1,.777-.73c.385-.148.8-.216,1.188-.358.879-.322,1.768-.628,2.621-1.013a30.588,30.588,0,0,0,9.573-6.609c.539-.559,1.033-1.16,1.537-1.751.109-.128.2-.192.363-.113a3.793,3.793,0,0,1,.579.284C1320.3,393.3,1320.6,393.576,1320.946,393.858Z" transform="translate(-1286.864 -369.307)" fill="#fff"/>
    </g>
  </g>
</svg>
