<svg xmlns="http://www.w3.org/2000/svg" width="354" height="354" viewBox="0 0 354 354">
  <g id="Group_44538" data-name="Group 44538" transform="translate(-683 -2443)" opacity="0.5">
    <g id="Group_1094" data-name="Group 1094" transform="translate(683 2443)">
      <circle id="Ellipse_67" data-name="Ellipse 67" cx="4" cy="4" r="4" fill="#b5c3ff"/>
      <circle id="Ellipse_68" data-name="Ellipse 68" cx="4" cy="4" r="4" transform="translate(29)" fill="#b5c3ff"/>
      <ellipse id="Ellipse_69" data-name="Ellipse 69" cx="3.5" cy="4" rx="3.5" ry="4" transform="translate(58)" fill="#b5c3ff"/>
      <ellipse id="Ellipse_70" data-name="Ellipse 70" cx="3.5" cy="4" rx="3.5" ry="4" transform="translate(87)" fill="#b5c3ff"/>
      <circle id="Ellipse_71" data-name="Ellipse 71" cx="4" cy="4" r="4" transform="translate(115)" fill="#b5c3ff"/>
      <circle id="Ellipse_72" data-name="Ellipse 72" cx="4" cy="4" r="4" transform="translate(144)" fill="#b5c3ff"/>
      <ellipse id="Ellipse_73" data-name="Ellipse 73" cx="3.5" cy="4" rx="3.5" ry="4" transform="translate(174)" fill="#b5c3ff"/>
      <circle id="Ellipse_74" data-name="Ellipse 74" cx="4" cy="4" r="4" transform="translate(202)" fill="#b5c3ff"/>
      <circle id="Ellipse_75" data-name="Ellipse 75" cx="4" cy="4" r="4" transform="translate(231)" fill="#b5c3ff"/>
      <ellipse id="Ellipse_76" data-name="Ellipse 76" cx="3.5" cy="4" rx="3.5" ry="4" transform="translate(260)" fill="#b5c3ff"/>
      <ellipse id="Ellipse_77" data-name="Ellipse 77" cx="3.5" cy="4" rx="3.5" ry="4" transform="translate(289)" fill="#b5c3ff"/>
      <circle id="Ellipse_78" data-name="Ellipse 78" cx="4" cy="4" r="4" transform="translate(317)" fill="#b5c3ff"/>
      <circle id="Ellipse_79" data-name="Ellipse 79" cx="4" cy="4" r="4" transform="translate(346)" fill="#b5c3ff"/>
    </g>
    <g id="Group_1095" data-name="Group 1095" transform="translate(683 2478.066)">
      <circle id="Ellipse_67-2" data-name="Ellipse 67" cx="4" cy="4" r="4" transform="translate(0 -0.066)" fill="#b5c3ff"/>
      <circle id="Ellipse_68-2" data-name="Ellipse 68" cx="4" cy="4" r="4" transform="translate(29 -0.066)" fill="#b5c3ff"/>
      <ellipse id="Ellipse_69-2" data-name="Ellipse 69" cx="3.5" cy="4" rx="3.5" ry="4" transform="translate(58 -0.066)" fill="#b5c3ff"/>
      <ellipse id="Ellipse_70-2" data-name="Ellipse 70" cx="3.5" cy="4" rx="3.5" ry="4" transform="translate(87 -0.066)" fill="#b5c3ff"/>
      <circle id="Ellipse_71-2" data-name="Ellipse 71" cx="4" cy="4" r="4" transform="translate(115 -0.066)" fill="#b5c3ff"/>
      <circle id="Ellipse_72-2" data-name="Ellipse 72" cx="4" cy="4" r="4" transform="translate(144 -0.066)" fill="#b5c3ff"/>
      <ellipse id="Ellipse_73-2" data-name="Ellipse 73" cx="3.5" cy="4" rx="3.5" ry="4" transform="translate(174 -0.066)" fill="#b5c3ff"/>
      <circle id="Ellipse_74-2" data-name="Ellipse 74" cx="4" cy="4" r="4" transform="translate(202 -0.066)" fill="#b5c3ff"/>
      <circle id="Ellipse_75-2" data-name="Ellipse 75" cx="4" cy="4" r="4" transform="translate(231 -0.066)" fill="#b5c3ff"/>
      <ellipse id="Ellipse_76-2" data-name="Ellipse 76" cx="3.5" cy="4" rx="3.5" ry="4" transform="translate(260 -0.066)" fill="#b5c3ff"/>
      <ellipse id="Ellipse_77-2" data-name="Ellipse 77" cx="3.5" cy="4" rx="3.5" ry="4" transform="translate(289 -0.066)" fill="#b5c3ff"/>
      <circle id="Ellipse_78-2" data-name="Ellipse 78" cx="4" cy="4" r="4" transform="translate(317 -0.066)" fill="#b5c3ff"/>
      <circle id="Ellipse_79-2" data-name="Ellipse 79" cx="4" cy="4" r="4" transform="translate(346 -0.066)" fill="#b5c3ff"/>
    </g>
    <g id="Group_1096" data-name="Group 1096" transform="translate(683 2512.297)">
      <circle id="Ellipse_67-3" data-name="Ellipse 67" cx="4" cy="4" r="4" transform="translate(0 -0.297)" fill="#b5c3ff"/>
      <circle id="Ellipse_68-3" data-name="Ellipse 68" cx="4" cy="4" r="4" transform="translate(29 -0.297)" fill="#b5c3ff"/>
      <ellipse id="Ellipse_69-3" data-name="Ellipse 69" cx="3.5" cy="4" rx="3.5" ry="4" transform="translate(58 -0.297)" fill="#b5c3ff"/>
      <ellipse id="Ellipse_70-3" data-name="Ellipse 70" cx="3.5" cy="4" rx="3.5" ry="4" transform="translate(87 -0.297)" fill="#b5c3ff"/>
      <circle id="Ellipse_71-3" data-name="Ellipse 71" cx="4" cy="4" r="4" transform="translate(115 -0.297)" fill="#b5c3ff"/>
      <circle id="Ellipse_72-3" data-name="Ellipse 72" cx="4" cy="4" r="4" transform="translate(144 -0.297)" fill="#b5c3ff"/>
      <ellipse id="Ellipse_73-3" data-name="Ellipse 73" cx="3.5" cy="4" rx="3.5" ry="4" transform="translate(174 -0.297)" fill="#b5c3ff"/>
      <circle id="Ellipse_74-3" data-name="Ellipse 74" cx="4" cy="4" r="4" transform="translate(202 -0.297)" fill="#b5c3ff"/>
      <circle id="Ellipse_75-3" data-name="Ellipse 75" cx="4" cy="4" r="4" transform="translate(231 -0.297)" fill="#b5c3ff"/>
      <ellipse id="Ellipse_76-3" data-name="Ellipse 76" cx="3.5" cy="4" rx="3.5" ry="4" transform="translate(260 -0.297)" fill="#b5c3ff"/>
      <ellipse id="Ellipse_77-3" data-name="Ellipse 77" cx="3.5" cy="4" rx="3.5" ry="4" transform="translate(289 -0.297)" fill="#b5c3ff"/>
      <circle id="Ellipse_78-3" data-name="Ellipse 78" cx="4" cy="4" r="4" transform="translate(317 -0.297)" fill="#b5c3ff"/>
      <circle id="Ellipse_79-3" data-name="Ellipse 79" cx="4" cy="4" r="4" transform="translate(346 -0.297)" fill="#b5c3ff"/>
    </g>
    <g id="Group_1097" data-name="Group 1097" transform="translate(683 2547.363)">
      <circle id="Ellipse_67-4" data-name="Ellipse 67" cx="4" cy="4" r="4" transform="translate(0 -0.363)" fill="#b5c3ff"/>
      <circle id="Ellipse_68-4" data-name="Ellipse 68" cx="4" cy="4" r="4" transform="translate(29 -0.363)" fill="#b5c3ff"/>
      <ellipse id="Ellipse_69-4" data-name="Ellipse 69" cx="3.5" cy="4" rx="3.5" ry="4" transform="translate(58 -0.363)" fill="#b5c3ff"/>
      <ellipse id="Ellipse_70-4" data-name="Ellipse 70" cx="3.5" cy="4" rx="3.5" ry="4" transform="translate(87 -0.363)" fill="#b5c3ff"/>
      <circle id="Ellipse_71-4" data-name="Ellipse 71" cx="4" cy="4" r="4" transform="translate(115 -0.363)" fill="#b5c3ff"/>
      <circle id="Ellipse_72-4" data-name="Ellipse 72" cx="4" cy="4" r="4" transform="translate(144 -0.363)" fill="#b5c3ff"/>
      <ellipse id="Ellipse_73-4" data-name="Ellipse 73" cx="3.5" cy="4" rx="3.5" ry="4" transform="translate(174 -0.363)" fill="#b5c3ff"/>
      <circle id="Ellipse_74-4" data-name="Ellipse 74" cx="4" cy="4" r="4" transform="translate(202 -0.363)" fill="#b5c3ff"/>
      <circle id="Ellipse_75-4" data-name="Ellipse 75" cx="4" cy="4" r="4" transform="translate(231 -0.363)" fill="#b5c3ff"/>
      <ellipse id="Ellipse_76-4" data-name="Ellipse 76" cx="3.5" cy="4" rx="3.5" ry="4" transform="translate(260 -0.363)" fill="#b5c3ff"/>
      <ellipse id="Ellipse_77-4" data-name="Ellipse 77" cx="3.5" cy="4" rx="3.5" ry="4" transform="translate(289 -0.363)" fill="#b5c3ff"/>
      <circle id="Ellipse_78-4" data-name="Ellipse 78" cx="4" cy="4" r="4" transform="translate(317 -0.363)" fill="#b5c3ff"/>
      <circle id="Ellipse_79-4" data-name="Ellipse 79" cx="4" cy="4" r="4" transform="translate(346 -0.363)" fill="#b5c3ff"/>
    </g>
    <g id="Group_1098" data-name="Group 1098" transform="translate(683 2581.594)">
      <ellipse id="Ellipse_67-5" data-name="Ellipse 67" cx="4" cy="3.5" rx="4" ry="3.5" transform="translate(0 0.406)" fill="#b5c3ff"/>
      <ellipse id="Ellipse_68-5" data-name="Ellipse 68" cx="4" cy="3.5" rx="4" ry="3.5" transform="translate(29 0.406)" fill="#b5c3ff"/>
      <circle id="Ellipse_69-5" data-name="Ellipse 69" cx="3.5" cy="3.5" r="3.5" transform="translate(58 0.406)" fill="#b5c3ff"/>
      <circle id="Ellipse_70-5" data-name="Ellipse 70" cx="3.5" cy="3.5" r="3.5" transform="translate(87 0.406)" fill="#b5c3ff"/>
      <ellipse id="Ellipse_71-5" data-name="Ellipse 71" cx="4" cy="3.5" rx="4" ry="3.5" transform="translate(115 0.406)" fill="#b5c3ff"/>
      <ellipse id="Ellipse_72-5" data-name="Ellipse 72" cx="4" cy="3.5" rx="4" ry="3.5" transform="translate(144 0.406)" fill="#b5c3ff"/>
      <circle id="Ellipse_73-5" data-name="Ellipse 73" cx="3.5" cy="3.5" r="3.5" transform="translate(174 0.406)" fill="#b5c3ff"/>
      <ellipse id="Ellipse_74-5" data-name="Ellipse 74" cx="4" cy="3.5" rx="4" ry="3.5" transform="translate(202 0.406)" fill="#b5c3ff"/>
      <ellipse id="Ellipse_75-5" data-name="Ellipse 75" cx="4" cy="3.5" rx="4" ry="3.5" transform="translate(231 0.406)" fill="#b5c3ff"/>
      <circle id="Ellipse_76-5" data-name="Ellipse 76" cx="3.5" cy="3.5" r="3.5" transform="translate(260 0.406)" fill="#b5c3ff"/>
      <circle id="Ellipse_77-5" data-name="Ellipse 77" cx="3.5" cy="3.5" r="3.5" transform="translate(289 0.406)" fill="#b5c3ff"/>
      <ellipse id="Ellipse_78-5" data-name="Ellipse 78" cx="4" cy="3.5" rx="4" ry="3.5" transform="translate(317 0.406)" fill="#b5c3ff"/>
      <ellipse id="Ellipse_79-5" data-name="Ellipse 79" cx="4" cy="3.5" rx="4" ry="3.5" transform="translate(346 0.406)" fill="#b5c3ff"/>
    </g>
    <g id="Group_1099" data-name="Group 1099" transform="translate(683 2616.66)">
      <ellipse id="Ellipse_67-6" data-name="Ellipse 67" cx="4" cy="3.5" rx="4" ry="3.5" transform="translate(0 0.34)" fill="#b5c3ff"/>
      <ellipse id="Ellipse_68-6" data-name="Ellipse 68" cx="4" cy="3.5" rx="4" ry="3.5" transform="translate(29 0.34)" fill="#b5c3ff"/>
      <circle id="Ellipse_69-6" data-name="Ellipse 69" cx="3.5" cy="3.5" r="3.5" transform="translate(58 0.34)" fill="#b5c3ff"/>
      <circle id="Ellipse_70-6" data-name="Ellipse 70" cx="3.5" cy="3.5" r="3.5" transform="translate(87 0.34)" fill="#b5c3ff"/>
      <ellipse id="Ellipse_71-6" data-name="Ellipse 71" cx="4" cy="3.5" rx="4" ry="3.5" transform="translate(115 0.34)" fill="#b5c3ff"/>
      <ellipse id="Ellipse_72-6" data-name="Ellipse 72" cx="4" cy="3.5" rx="4" ry="3.5" transform="translate(144 0.34)" fill="#b5c3ff"/>
      <circle id="Ellipse_73-6" data-name="Ellipse 73" cx="3.5" cy="3.5" r="3.5" transform="translate(174 0.34)" fill="#b5c3ff"/>
      <ellipse id="Ellipse_74-6" data-name="Ellipse 74" cx="4" cy="3.5" rx="4" ry="3.5" transform="translate(202 0.34)" fill="#b5c3ff"/>
      <ellipse id="Ellipse_75-6" data-name="Ellipse 75" cx="4" cy="3.5" rx="4" ry="3.5" transform="translate(231 0.34)" fill="#b5c3ff"/>
      <circle id="Ellipse_76-6" data-name="Ellipse 76" cx="3.5" cy="3.5" r="3.5" transform="translate(260 0.34)" fill="#b5c3ff"/>
      <circle id="Ellipse_77-6" data-name="Ellipse 77" cx="3.5" cy="3.5" r="3.5" transform="translate(289 0.34)" fill="#b5c3ff"/>
      <ellipse id="Ellipse_78-6" data-name="Ellipse 78" cx="4" cy="3.5" rx="4" ry="3.5" transform="translate(317 0.34)" fill="#b5c3ff"/>
      <ellipse id="Ellipse_79-6" data-name="Ellipse 79" cx="4" cy="3.5" rx="4" ry="3.5" transform="translate(346 0.34)" fill="#b5c3ff"/>
    </g>
    <g id="Group_1100" data-name="Group 1100" transform="translate(683 2650.892)">
      <ellipse id="Ellipse_67-7" data-name="Ellipse 67" cx="4" cy="3.5" rx="4" ry="3.5" transform="translate(0 0.108)" fill="#b5c3ff"/>
      <ellipse id="Ellipse_68-7" data-name="Ellipse 68" cx="4" cy="3.5" rx="4" ry="3.5" transform="translate(29 0.108)" fill="#b5c3ff"/>
      <circle id="Ellipse_69-7" data-name="Ellipse 69" cx="3.5" cy="3.5" r="3.5" transform="translate(58 0.108)" fill="#b5c3ff"/>
      <circle id="Ellipse_70-7" data-name="Ellipse 70" cx="3.5" cy="3.5" r="3.5" transform="translate(87 0.108)" fill="#b5c3ff"/>
      <ellipse id="Ellipse_71-7" data-name="Ellipse 71" cx="4" cy="3.5" rx="4" ry="3.5" transform="translate(115 0.108)" fill="#b5c3ff"/>
      <ellipse id="Ellipse_72-7" data-name="Ellipse 72" cx="4" cy="3.5" rx="4" ry="3.5" transform="translate(144 0.108)" fill="#b5c3ff"/>
      <circle id="Ellipse_73-7" data-name="Ellipse 73" cx="3.5" cy="3.5" r="3.5" transform="translate(174 0.108)" fill="#b5c3ff"/>
      <ellipse id="Ellipse_74-7" data-name="Ellipse 74" cx="4" cy="3.5" rx="4" ry="3.5" transform="translate(202 0.108)" fill="#b5c3ff"/>
      <ellipse id="Ellipse_75-7" data-name="Ellipse 75" cx="4" cy="3.5" rx="4" ry="3.5" transform="translate(231 0.108)" fill="#b5c3ff"/>
      <circle id="Ellipse_76-7" data-name="Ellipse 76" cx="3.5" cy="3.5" r="3.5" transform="translate(260 0.108)" fill="#b5c3ff"/>
      <circle id="Ellipse_77-7" data-name="Ellipse 77" cx="3.5" cy="3.5" r="3.5" transform="translate(289 0.108)" fill="#b5c3ff"/>
      <ellipse id="Ellipse_78-7" data-name="Ellipse 78" cx="4" cy="3.5" rx="4" ry="3.5" transform="translate(317 0.108)" fill="#b5c3ff"/>
      <ellipse id="Ellipse_79-7" data-name="Ellipse 79" cx="4" cy="3.5" rx="4" ry="3.5" transform="translate(346 0.108)" fill="#b5c3ff"/>
    </g>
    <g id="Group_1101" data-name="Group 1101" transform="translate(683 2685.958)">
      <ellipse id="Ellipse_67-8" data-name="Ellipse 67" cx="4" cy="3.5" rx="4" ry="3.5" transform="translate(0 0.042)" fill="#b5c3ff"/>
      <ellipse id="Ellipse_68-8" data-name="Ellipse 68" cx="4" cy="3.5" rx="4" ry="3.5" transform="translate(29 0.042)" fill="#b5c3ff"/>
      <circle id="Ellipse_69-8" data-name="Ellipse 69" cx="3.5" cy="3.5" r="3.5" transform="translate(58 0.042)" fill="#b5c3ff"/>
      <circle id="Ellipse_70-8" data-name="Ellipse 70" cx="3.5" cy="3.5" r="3.5" transform="translate(87 0.042)" fill="#b5c3ff"/>
      <ellipse id="Ellipse_71-8" data-name="Ellipse 71" cx="4" cy="3.5" rx="4" ry="3.5" transform="translate(115 0.042)" fill="#b5c3ff"/>
      <ellipse id="Ellipse_72-8" data-name="Ellipse 72" cx="4" cy="3.5" rx="4" ry="3.5" transform="translate(144 0.042)" fill="#b5c3ff"/>
      <circle id="Ellipse_73-8" data-name="Ellipse 73" cx="3.5" cy="3.5" r="3.5" transform="translate(174 0.042)" fill="#b5c3ff"/>
      <ellipse id="Ellipse_74-8" data-name="Ellipse 74" cx="4" cy="3.5" rx="4" ry="3.5" transform="translate(202 0.042)" fill="#b5c3ff"/>
      <ellipse id="Ellipse_75-8" data-name="Ellipse 75" cx="4" cy="3.5" rx="4" ry="3.5" transform="translate(231 0.042)" fill="#b5c3ff"/>
      <circle id="Ellipse_76-8" data-name="Ellipse 76" cx="3.5" cy="3.5" r="3.5" transform="translate(260 0.042)" fill="#b5c3ff"/>
      <circle id="Ellipse_77-8" data-name="Ellipse 77" cx="3.5" cy="3.5" r="3.5" transform="translate(289 0.042)" fill="#b5c3ff"/>
      <ellipse id="Ellipse_78-8" data-name="Ellipse 78" cx="4" cy="3.5" rx="4" ry="3.5" transform="translate(317 0.042)" fill="#b5c3ff"/>
      <ellipse id="Ellipse_79-8" data-name="Ellipse 79" cx="4" cy="3.5" rx="4" ry="3.5" transform="translate(346 0.042)" fill="#b5c3ff"/>
    </g>
    <g id="Group_1102" data-name="Group 1102" transform="translate(683 2720.189)">
      <circle id="Ellipse_67-9" data-name="Ellipse 67" cx="4" cy="4" r="4" transform="translate(0 -0.189)" fill="#b5c3ff"/>
      <circle id="Ellipse_68-9" data-name="Ellipse 68" cx="4" cy="4" r="4" transform="translate(29 -0.189)" fill="#b5c3ff"/>
      <ellipse id="Ellipse_69-9" data-name="Ellipse 69" cx="3.5" cy="4" rx="3.5" ry="4" transform="translate(58 -0.189)" fill="#b5c3ff"/>
      <ellipse id="Ellipse_70-9" data-name="Ellipse 70" cx="3.5" cy="4" rx="3.5" ry="4" transform="translate(87 -0.189)" fill="#b5c3ff"/>
      <circle id="Ellipse_71-9" data-name="Ellipse 71" cx="4" cy="4" r="4" transform="translate(115 -0.189)" fill="#b5c3ff"/>
      <circle id="Ellipse_72-9" data-name="Ellipse 72" cx="4" cy="4" r="4" transform="translate(144 -0.189)" fill="#b5c3ff"/>
      <ellipse id="Ellipse_73-9" data-name="Ellipse 73" cx="3.5" cy="4" rx="3.5" ry="4" transform="translate(174 -0.189)" fill="#b5c3ff"/>
      <circle id="Ellipse_74-9" data-name="Ellipse 74" cx="4" cy="4" r="4" transform="translate(202 -0.189)" fill="#b5c3ff"/>
      <circle id="Ellipse_75-9" data-name="Ellipse 75" cx="4" cy="4" r="4" transform="translate(231 -0.189)" fill="#b5c3ff"/>
      <ellipse id="Ellipse_76-9" data-name="Ellipse 76" cx="3.5" cy="4" rx="3.5" ry="4" transform="translate(260 -0.189)" fill="#b5c3ff"/>
      <ellipse id="Ellipse_77-9" data-name="Ellipse 77" cx="3.5" cy="4" rx="3.5" ry="4" transform="translate(289 -0.189)" fill="#b5c3ff"/>
      <circle id="Ellipse_78-9" data-name="Ellipse 78" cx="4" cy="4" r="4" transform="translate(317 -0.189)" fill="#b5c3ff"/>
      <circle id="Ellipse_79-9" data-name="Ellipse 79" cx="4" cy="4" r="4" transform="translate(346 -0.189)" fill="#b5c3ff"/>
    </g>
    <g id="Group_1103" data-name="Group 1103" transform="translate(683 2755.255)">
      <circle id="Ellipse_67-10" data-name="Ellipse 67" cx="4" cy="4" r="4" transform="translate(0 -0.255)" fill="#b5c3ff"/>
      <circle id="Ellipse_68-10" data-name="Ellipse 68" cx="4" cy="4" r="4" transform="translate(29 -0.255)" fill="#b5c3ff"/>
      <ellipse id="Ellipse_69-10" data-name="Ellipse 69" cx="3.5" cy="4" rx="3.5" ry="4" transform="translate(58 -0.255)" fill="#b5c3ff"/>
      <ellipse id="Ellipse_70-10" data-name="Ellipse 70" cx="3.5" cy="4" rx="3.5" ry="4" transform="translate(87 -0.255)" fill="#b5c3ff"/>
      <circle id="Ellipse_71-10" data-name="Ellipse 71" cx="4" cy="4" r="4" transform="translate(115 -0.255)" fill="#b5c3ff"/>
      <circle id="Ellipse_72-10" data-name="Ellipse 72" cx="4" cy="4" r="4" transform="translate(144 -0.255)" fill="#b5c3ff"/>
      <ellipse id="Ellipse_73-10" data-name="Ellipse 73" cx="3.5" cy="4" rx="3.5" ry="4" transform="translate(174 -0.255)" fill="#b5c3ff"/>
      <circle id="Ellipse_74-10" data-name="Ellipse 74" cx="4" cy="4" r="4" transform="translate(202 -0.255)" fill="#b5c3ff"/>
      <circle id="Ellipse_75-10" data-name="Ellipse 75" cx="4" cy="4" r="4" transform="translate(231 -0.255)" fill="#b5c3ff"/>
      <ellipse id="Ellipse_76-10" data-name="Ellipse 76" cx="3.5" cy="4" rx="3.5" ry="4" transform="translate(260 -0.255)" fill="#b5c3ff"/>
      <ellipse id="Ellipse_77-10" data-name="Ellipse 77" cx="3.5" cy="4" rx="3.5" ry="4" transform="translate(289 -0.255)" fill="#b5c3ff"/>
      <circle id="Ellipse_78-10" data-name="Ellipse 78" cx="4" cy="4" r="4" transform="translate(317 -0.255)" fill="#b5c3ff"/>
      <circle id="Ellipse_79-10" data-name="Ellipse 79" cx="4" cy="4" r="4" transform="translate(346 -0.255)" fill="#b5c3ff"/>
    </g>
    <g id="Group_1104" data-name="Group 1104" transform="translate(683 2789.486)">
      <circle id="Ellipse_67-11" data-name="Ellipse 67" cx="4" cy="4" r="4" transform="translate(0 -0.486)" fill="#b5c3ff"/>
      <circle id="Ellipse_68-11" data-name="Ellipse 68" cx="4" cy="4" r="4" transform="translate(29 -0.486)" fill="#b5c3ff"/>
      <ellipse id="Ellipse_69-11" data-name="Ellipse 69" cx="3.5" cy="4" rx="3.5" ry="4" transform="translate(58 -0.486)" fill="#b5c3ff"/>
      <ellipse id="Ellipse_70-11" data-name="Ellipse 70" cx="3.5" cy="4" rx="3.5" ry="4" transform="translate(87 -0.486)" fill="#b5c3ff"/>
      <circle id="Ellipse_71-11" data-name="Ellipse 71" cx="4" cy="4" r="4" transform="translate(115 -0.486)" fill="#b5c3ff"/>
      <circle id="Ellipse_72-11" data-name="Ellipse 72" cx="4" cy="4" r="4" transform="translate(144 -0.486)" fill="#b5c3ff"/>
      <ellipse id="Ellipse_73-11" data-name="Ellipse 73" cx="3.5" cy="4" rx="3.5" ry="4" transform="translate(174 -0.486)" fill="#b5c3ff"/>
      <circle id="Ellipse_74-11" data-name="Ellipse 74" cx="4" cy="4" r="4" transform="translate(202 -0.486)" fill="#b5c3ff"/>
      <circle id="Ellipse_75-11" data-name="Ellipse 75" cx="4" cy="4" r="4" transform="translate(231 -0.486)" fill="#b5c3ff"/>
      <ellipse id="Ellipse_76-11" data-name="Ellipse 76" cx="3.5" cy="4" rx="3.5" ry="4" transform="translate(260 -0.486)" fill="#b5c3ff"/>
      <ellipse id="Ellipse_77-11" data-name="Ellipse 77" cx="3.5" cy="4" rx="3.5" ry="4" transform="translate(289 -0.486)" fill="#b5c3ff"/>
      <circle id="Ellipse_78-11" data-name="Ellipse 78" cx="4" cy="4" r="4" transform="translate(317 -0.486)" fill="#b5c3ff"/>
      <circle id="Ellipse_79-11" data-name="Ellipse 79" cx="4" cy="4" r="4" transform="translate(346 -0.486)" fill="#b5c3ff"/>
    </g>
  </g>
</svg>
