<svg xmlns="http://www.w3.org/2000/svg" width="213.141" height="50.377" viewBox="0 0 213.141 50.377">
  <g id="Group_44543" data-name="Group 44543" transform="translate(-846.805 -87)">
    <path id="Path_19286" data-name="Path 19286" d="M14.391-5.076a5.231,5.231,0,0,1-.675,2.605A4.908,4.908,0,0,1,11.664-.54,7.141,7.141,0,0,1,8.289.189,8.442,8.442,0,0,1,4.806-.5,6.061,6.061,0,0,1,2.349-2.43,5.481,5.481,0,0,1,1.3-5.292H4.59A3.379,3.379,0,0,0,5.657-3.159a3.462,3.462,0,0,0,2.5.891,2.97,2.97,0,0,0,2.174-.756A2.607,2.607,0,0,0,11.1-4.968a2.5,2.5,0,0,0-.567-1.687,3.975,3.975,0,0,0-1.4-1.04q-.837-.378-2.3-.864a20,20,0,0,1-2.9-1.134,5.279,5.279,0,0,1-1.9-1.647,4.721,4.721,0,0,1-.783-2.835A4.836,4.836,0,0,1,2-16.875a4.914,4.914,0,0,1,2.16-1.8,7.8,7.8,0,0,1,3.24-.635,7.091,7.091,0,0,1,4.63,1.4,5.291,5.291,0,0,1,1.957,3.672H10.665a3.238,3.238,0,0,0-1.012-1.85A3.171,3.171,0,0,0,7.4-16.848a3.114,3.114,0,0,0-2.079.661,2.353,2.353,0,0,0-.783,1.9,2.392,2.392,0,0,0,.54,1.606,3.754,3.754,0,0,0,1.364,1q.824.365,2.254.851A19.807,19.807,0,0,1,11.651-9.68a5.356,5.356,0,0,1,1.944,1.688A4.884,4.884,0,0,1,14.391-5.076ZM25.785-15.12a5.424,5.424,0,0,1,4.158,1.674,6.736,6.736,0,0,1,1.566,4.779V0H28.431V-8.343A4.346,4.346,0,0,0,27.4-11.435,3.664,3.664,0,0,0,24.6-12.528a3.854,3.854,0,0,0-2.943,1.175,4.841,4.841,0,0,0-1.107,3.443V0H17.469V-19.98h3.078v8.37a4.992,4.992,0,0,1,2-2.592A5.786,5.786,0,0,1,25.785-15.12ZM34.668-19.2a1.711,1.711,0,0,1,.54-1.3,1.992,1.992,0,0,1,1.431-.513,2.04,2.04,0,0,1,1.444.513,1.691,1.691,0,0,1,.554,1.3,1.609,1.609,0,0,1-.554,1.269,2.109,2.109,0,0,1-1.444.486,2.058,2.058,0,0,1-1.431-.486A1.627,1.627,0,0,1,34.668-19.2Zm3.51,4.32V0H35.1V-14.877ZM50.328,0,44.982-6.615V0H41.9V-19.98h3.078V-8.532l5.292-6.345h3.7l-6.48,7.4L54.135,0ZM61.02-15.066a6.283,6.283,0,0,1,4.2,1.337,5.655,5.655,0,0,1,1.931,3.578H64.233a3.147,3.147,0,0,0-1.04-1.957,3.305,3.305,0,0,0-2.255-.743,2.646,2.646,0,0,0-1.8.553,1.887,1.887,0,0,0-.634,1.5,1.485,1.485,0,0,0,.459,1.134,3.2,3.2,0,0,0,1.147.675,19.761,19.761,0,0,0,1.958.54,19.558,19.558,0,0,1,2.713.783,4.4,4.4,0,0,1,1.782,1.282A3.581,3.581,0,0,1,67.311-4,3.724,3.724,0,0,1,65.894-.972,5.849,5.849,0,0,1,62.073.189a7.262,7.262,0,0,1-4.5-1.3,5.335,5.335,0,0,1-2.065-3.618h3a2.829,2.829,0,0,0,1.08,1.971A3.857,3.857,0,0,0,62.073-2a2.482,2.482,0,0,0,1.741-.581,1.908,1.908,0,0,0,.634-1.471,1.627,1.627,0,0,0-.486-1.242,3.371,3.371,0,0,0-1.215-.715,16.878,16.878,0,0,0-2-.527,22.136,22.136,0,0,1-2.632-.756,4.1,4.1,0,0,1-1.728-1.228,3.473,3.473,0,0,1-.715-2.309,3.79,3.79,0,0,1,1.417-3.064A5.982,5.982,0,0,1,61.02-15.066Zm17.685-.054a5.424,5.424,0,0,1,4.158,1.674,6.736,6.736,0,0,1,1.566,4.779V0H81.351V-8.343a4.346,4.346,0,0,0-1.026-3.092,3.664,3.664,0,0,0-2.808-1.094,3.854,3.854,0,0,0-2.943,1.175,4.841,4.841,0,0,0-1.107,3.443V0H70.389V-19.98h3.078v8.37a4.992,4.992,0,0,1,2-2.592A5.786,5.786,0,0,1,78.705-15.12ZM99.576-3.483H92.421L91.233,0h-4.86l6.993-18.954h5.319L105.678,0h-4.914Zm-1.188-3.51-2.376-7.02-2.4,7.02Zm13.689.3V0H107.46V-19.089h7.479a7.262,7.262,0,0,1,5.184,1.688,5.968,5.968,0,0,1,1.782,4.55,6.268,6.268,0,0,1-.8,3.172,5.522,5.522,0,0,1-2.363,2.187,8.323,8.323,0,0,1-3.807.8Zm2.349-3.7q2.781,0,2.781-2.457,0-2.511-2.781-2.511h-2.349V-10.4Zm14.364-8.694V0h-4.617V-19.089Z" transform="translate(931.105 118.358)" fill="#36383b" stroke="#36383b" stroke-width="0.1"/>
    <g id="Group_44542" data-name="Group 44542">
      <path id="Path_7334" data-name="Path 7334" d="M97.17,154.783s-14.577-11.449-30.328-7.853l1.571-6.5a10.193,10.193,0,0,1,2.973.514l-.644,3.541s14.28-1.826,26.428,10.3" transform="translate(782.458 -17.406)" fill="#5a82fa"/>
      <path id="Path_7335" data-name="Path 7335" d="M94.742,120.871s-13.03-16.1-32.823-16.1l11.1-33.108A21.743,21.743,0,0,1,76.5,72.793l-9.424,28.06s19.778,5.621,27.668,20.018" transform="translate(784.886 16.506)" fill="#5a82fa"/>
      <path id="Path_7336" data-name="Path 7336" d="M102.943,119.732C96.486,100.893,78.548,96.9,78.548,96.9l9.231-27.549a24.451,24.451,0,0,1,3.962,1.587,23.766,23.766,0,0,1,5.3,3.67L95.5,78.753a7.2,7.2,0,0,0-5.672-3.73l-6.58,19.04S97.722,97.248,102.943,119.732Z" transform="translate(776.685 17.645)" fill="#5a82fa"/>
      <path id="Path_7337" data-name="Path 7337" d="M145.486,154.783s14.577-11.449,30.328-7.853l-1.572-6.5a10.191,10.191,0,0,0-2.972.514l.644,3.541s-14.28-1.826-26.428,10.3" transform="translate(743.677 -17.406)" fill="#5a82fa"/>
      <path id="Path_7338" data-name="Path 7338" d="M145.486,120.871s13.03-16.1,32.823-16.1l-11.1-33.108a21.751,21.751,0,0,0-3.483,1.129l9.424,28.06s-19.779,5.621-27.668,20.018" transform="translate(743.677 16.506)" fill="#5a82fa"/>
      <path id="Path_7339" data-name="Path 7339" d="M145.486,119.732c6.457-18.839,24.395-22.828,24.395-22.828L160.65,69.355a24.453,24.453,0,0,0-3.962,1.587,23.767,23.767,0,0,0-5.3,3.67l1.542,4.141a7.2,7.2,0,0,1,5.672-3.73l6.58,19.04S150.707,97.248,145.486,119.732Z" transform="translate(743.677 17.645)" fill="#5a82fa"/>
      <g id="Group_44174" data-name="Group 44174" transform="translate(871.505 101.121)">
        <g id="Group_44172" data-name="Group 44172" transform="translate(0 0)">
          <path id="Path_7340" data-name="Path 7340" d="M543.673,129.034l7.128,2.994v4.08l-11.985-5.034v-4.08Z" transform="translate(-538.816 -121.952)" fill="#849ff9"/>
          <path id="Path_7341" data-name="Path 7341" d="M543.673,112.88l7.128-2.994v-4.08l-11.985,5.034v4.08Z" transform="translate(-538.816 -105.805)" fill="#4071fa"/>
        </g>
        <g id="Group_44173" data-name="Group 44173" transform="translate(16.811 0)">
          <path id="Path_7342" data-name="Path 7342" d="M616.6,129.034l-7.128,2.994v4.08l11.985-5.034v-4.08Z" transform="translate(-609.469 -121.952)" fill="#849ff9"/>
          <path id="Path_7343" data-name="Path 7343" d="M616.6,112.88l-7.128-2.994v-4.08l11.985,5.034v4.08Z" transform="translate(-609.469 -105.805)" fill="#4071fa"/>
        </g>
      </g>
    </g>
  </g>
</svg>
