<svg xmlns="http://www.w3.org/2000/svg" width="164.548" height="45.08" viewBox="0 0 164.548 45.08">
  <g id="_2384c5ff" data-name="#2384c5ff" transform="translate(-73.986 -71.457)">
    <path id="path2" d="M912.063,73.038a2,2,0,0,1,3.145-1.192,3.645,3.645,0,0,1,.093,1.012,4.216,4.216,0,0,0-1.331-.218c-.32.246-.675.564-.581,1.016a5.233,5.233,0,0,0,1.258,1.582c.26.011.522.018.786.027-.007.47.006.941-.036,1.41-.274-.011-.545-.015-.814-.015,0,.657.011,1.315-.008,1.973-1.074-.028-2.149-.01-3.223-.006.309.531.7,1.426,1.468,1.151a3.361,3.361,0,0,1,1.918-.19c.462.2.526.762.562,1.206a2.57,2.57,0,0,1-.585,1.6,4.129,4.129,0,0,1-1.181.818c.508.423,1.144.65,1.658,1.066a13.186,13.186,0,0,0-.972,1.1,14.3,14.3,0,0,1-2.486-1.818c-.591-.077-1.293,0-1.751-.468a1.193,1.193,0,0,1-.293-1.15,1.258,1.258,0,0,1,1.077-.678,2.958,2.958,0,0,1,1.645,1.064c.747.046,1.464-1.126.854-1.714-.438.045-.816.357-1.268.314a2.911,2.911,0,0,1-2.258-1.831,1.1,1.1,0,0,1,.446-1.561,18.455,18.455,0,0,1,2.086-.034c.226-.022.491.066.694-.077.014-.264,0-.528-.01-.79-1.556.042-3.114-.015-4.669.027-.042,2.287-.013,4.578-.014,6.867-.587,0-1.172,0-1.758.007q0-3.441,0-6.882c-.522-.008-1.044-.008-1.565.014.044,2.287.011,4.577.01,6.865-.556,0-1.113,0-1.668-.006,0-1.035-.018-2.069.006-3.1a4.4,4.4,0,0,1-.789.07,2.187,2.187,0,0,1-.824,2.18,2.926,2.926,0,0,1-3.281-.234,5.8,5.8,0,0,1-1.93-2.8c.407-.185.831-.334,1.23-.539a9.893,9.893,0,0,0,1.21,1.991,1.853,1.853,0,0,0,1.4.532,1,1,0,0,0,.3-1.654c-.376-.387-.943-.3-1.428-.3-.156-.3-.293-.608-.434-.913.526-.275,1.177-.366,1.52-.907a1.1,1.1,0,0,0-.337-1.012,1.981,1.981,0,0,0-1.675.869c-.257-.465-.432-.967-.678-1.436a3.018,3.018,0,0,1,3.6-.4,1.843,1.843,0,0,1,.209,2.825,4.789,4.789,0,0,0,1.036.541,1.284,1.284,0,0,0,.823-.3c.083-.751-.006-1.512.055-2.266-.338-.014-.674-.024-1.009-.052,0-.465,0-.931.017-1.4,3.642.038,7.286.031,10.927,0-.548-.622-1.365-1.264-1.175-2.2Z" transform="translate(-707.013)" fill="#2384c5"/>
    <path id="path4" d="M1046.628,72.289a3.783,3.783,0,0,1,3.416.219,5.623,5.623,0,0,1,2.316,2.983c.045,2.829-.011,5.662.028,8.492q-.886.013-1.77,0c.022-2.29.007-4.581.007-6.871-.512-.006-1.025,0-1.534,0q-.027,3.439,0,6.878c-.566.006-1.13.006-1.693,0,0-1.094.011-2.189-.006-3.284.045-.386-.428-.178-.636-.174a7.007,7.007,0,0,1-.837-1.4,12.411,12.411,0,0,0,1.481.01c0-.675,0-1.349-.008-2.023-.6.008-1.206-.036-1.8.014-.145.95.274,2.05-.369,2.874a1.968,1.968,0,0,1-1.04.623q1.019,1.209,2.012,2.441c-.451.343-.906.678-1.353,1.023-1.091-1.638-2.3-3.2-3.336-4.874.4-.307.821-.592,1.237-.884a2.1,2.1,0,0,0,.781.966c.1-.087.2-.174.3-.261-.006-.646.01-1.29-.017-1.936-.535.014-1.067.015-1.6.014q0-.705,0-1.408c1.266,0,2.534.028,3.8-.014a2.538,2.538,0,0,1-.463-2.124,2.213,2.213,0,0,1,1.087-1.273m.762,1.164a1.17,1.17,0,0,0-.038,1.892,3.718,3.718,0,0,0,2.222.365c.382-.013.807.091,1.136-.164a3.9,3.9,0,0,0-1.3-1.71A2.024,2.024,0,0,0,1047.391,73.452Z" transform="translate(-831.683 -0.449)" fill="#2384c5"/>
    <path id="path6" d="M547.112,96.955A22.946,22.946,0,0,1,559.5,92.935c2.778-.06,5.561,0,8.341-.035.018,4.213,0,8.428.007,12.641q-14.017.032-28.033,0A21.165,21.165,0,0,1,547.112,96.955Z" transform="translate(-400.426 -18.433)" fill="#2384c5"/>
    <path id="path8" d="M74,97.959c2.248.031,4.5-.073,6.744.077,3.417-.029,6.837.036,10.254-.034.922,1.377,1.7,2.842,2.575,4.251,1.511,2.55,3.039,5.088,4.537,7.646q-12.052-.015-24.1,0C73.988,105.918,74,101.939,74,97.959Z" transform="translate(-0.009 -22.776)" fill="#2384c5"/>
    <path id="path10" d="M276.89,98c4.637-.032,9.276-.006,13.914-.014-.013,3.984.025,7.97-.02,11.953q-6.928-.051-13.858,0C276.869,105.957,276.938,101.978,276.89,98Z" transform="translate(-174.418 -22.802)" fill="#2384c5"/>
    <path id="path12" d="M404,98q7.272,0,14.543,0c-.031,3.973,0,7.948-.014,11.921-4.841.031-9.681,0-14.522.017C403.988,105.957,404,101.978,404,98Z" transform="translate(-283.679 -22.815)" fill="#2384c5"/>
    <path id="path14" d="M793.437,98.507c4.542-.011,9.083,0,13.625-.007-.006.468-.011.935-.007,1.4-.33,0-.658,0-.986.013q.015,3.441,0,6.881c-.56-.017-1.12-.011-1.679-.015,0-1.311.008-2.621-.007-3.932-.654.011-1.308.008-1.961,0a2.663,2.663,0,0,1-.229,1.47c-.242-.007-.531.105-.723-.093a7.51,7.51,0,0,1-1.506-1.724,1.013,1.013,0,0,1-.111-.8c.192-.33.618-.326.952-.334,1.2.006,2.392.011,3.588,0,0-.487,0-.974-.006-1.461q-2.807-.006-5.612,0c-.013.964.022,1.93-.014,2.893-.091.717-.856.987-1.464,1.129-.468-.4-.955-.781-1.4-1.207a2.291,2.291,0,0,0,1.13-.19c-.007-.872-.035-1.744.011-2.614-.615-.025-1.231-.017-1.846-.006,0,1.182,0,2.364,0,3.546,1.059.972,2.213,1.834,3.288,2.787a1.257,1.257,0,0,1,.453,1.025c.032.664-.628,1.077-1.181,1.261-.236-.007-.564.08-.709-.16a9.636,9.636,0,0,1-.553-.827.725.725,0,0,0,.869-.379c-1.289-1.11-2.624-2.168-3.928-3.261C793.453,102.105,793.439,100.305,793.437,98.507Z" transform="translate(-618.44 -23.247)" fill="#2384c5"/>
    <path id="path16" d="M792.457,178.428c.671.011,1.341,0,2.012.01q1.651,3,3.417,5.941c-.056-1.98,0-3.96-.038-5.94.609,0,1.22,0,1.831-.02.007,2.958.03,5.918-.011,8.876-.628-.024-1.255-.031-1.881,0-1.241-2.016-2.329-4.128-3.609-6.118.094,2.031-.011,4.067.044,6.1-.59.01-1.181.006-1.77,0C792.472,184.323,792.457,181.375,792.457,178.428Z" transform="translate(-617.597 -91.946)" fill="#2384c5"/>
    <path id="path18" d="M931.48,178.511c.611-.007,1.221-.007,1.832-.006,0,.538,0,1.077-.021,1.614-.6,0-1.2,0-1.8,0C931.481,179.582,931.48,179.047,931.48,178.511Z" transform="translate(-737.109 -92.019)" fill="#2384c5"/>
    <path id="path20" d="M1106.448,178.48c.607.007,1.213.006,1.821,0,.013,2.95,0,5.9.01,8.849-.614,0-1.227,0-1.839-.01C1106.469,184.374,1106.447,181.427,1106.448,178.48Z" transform="translate(-887.506 -91.998)" fill="#2384c5"/>
    <path id="path22" d="M897.863,182.438c.583,0,1.165,0,1.749-.018.013.612.008,1.223.008,1.835.347,0,.695,0,1.044-.008q.019.642,0,1.285c-.351-.007-.7-.014-1.05-.006.02,1.24-.027,2.481.023,3.719.2.344.7.174,1.032.212-.006.442,0,.884,0,1.327a6.291,6.291,0,0,1-2.284-.184,1.066,1.066,0,0,1-.531-.945c.006-1.379.015-2.757,0-4.136l-.891,0a8.361,8.361,0,0,1,0-1.258c.3,0,.6,0,.9,0q0-.908-.007-1.817Z" transform="translate(-707.423 -95.385)" fill="#2384c5"/>
    <path id="path24" d="M953.279,193.4a3.778,3.778,0,0,1,2.829.682,4.039,4.039,0,0,1,.369,5.18,3.213,3.213,0,0,1-2.84,1.078,2.883,2.883,0,0,1-2.419-1.106,4.089,4.089,0,0,1-.07-4.609,2.938,2.938,0,0,1,2.131-1.226m-.335,1.769a2.574,2.574,0,0,0-.654,1.714,3.2,3.2,0,0,0,.417,1.429,1.446,1.446,0,0,0,2.145.16,2.5,2.5,0,0,0,.539-1.641c-.046-.681-.209-1.54-.931-1.815A1.508,1.508,0,0,0,952.943,195.171Z" transform="translate(-753.433 -104.8)" fill="#2384c5"/>
    <path id="path26" d="M852.717,194a5.18,5.18,0,0,1,3.07.206,1.628,1.628,0,0,1,.959,1.506c.014,1.308-.006,2.618,0,3.928,0,.344.293.584.432.876a9.434,9.434,0,0,1-2.05-.022,1.865,1.865,0,0,1-.069-.643,2.887,2.887,0,0,1-2.039.917,1.943,1.943,0,0,1-2.083-1.4,2.674,2.674,0,0,1,.243-1.721,2.639,2.639,0,0,1,1.916-1,4.321,4.321,0,0,0,1.742-.39c.324-.277.074-.772-.284-.869a1.584,1.584,0,0,0-1.339.07c-.258.16-.313.48-.424.738-.563-.006-1.125.008-1.686-.013A2.176,2.176,0,0,1,852.717,194m.354,3.993c-.267.118-.33.431-.445.67.058.178.112.358.167.539a1.451,1.451,0,0,0,1.765-.143c.458-.385.413-1.057.449-1.6C854.392,197.745,853.685,197.712,853.071,197.994Z" transform="translate(-667.852 -105.221)" fill="#2384c5"/>
    <path id="path28" d="M1007.751,194.8a2.493,2.493,0,0,1,1.327-.847,3.141,3.141,0,0,1,1.949.279,1.863,1.863,0,0,1,.939,1.666c0,1.567-.017,3.134,0,4.7-.611.008-1.221.006-1.831,0-.008-1.453.021-2.906-.013-4.358-.032-.935-1.367-1.094-1.906-.5a2.252,2.252,0,0,0-.465,1.563c-.01,1.1-.007,2.2,0,3.3-.587,0-1.172,0-1.758.007,0-2.183-.008-4.365.006-6.546.584.014,1.168.01,1.752.024,0,.237-.008.476,0,.715Z" transform="translate(-801.163 -105.269)" fill="#2384c5"/>
    <path id="path30" d="M1056.983,194.081a4.992,4.992,0,0,1,3.062.008,1.608,1.608,0,0,1,1.228,1.446c.022,1.318,0,2.637.008,3.955-.014.385.268.681.425,1.008-.641.072-1.287.027-1.929.044-.042-.055-.123-.164-.166-.219v-.5a2.826,2.826,0,0,1-2.266.927,1.88,1.88,0,0,1-1.878-1.557,2.39,2.39,0,0,1,.282-1.6,2.224,2.224,0,0,1,1.464-.873,17.2,17.2,0,0,0,2.045-.379.524.524,0,0,0,.028-.882,1.586,1.586,0,0,0-1.6.021,2.877,2.877,0,0,0-.385.7c-.56,0-1.12,0-1.678,0a2.256,2.256,0,0,1,1.355-2.1m.67,3.876a.813.813,0,0,0-.211,1.289,1.508,1.508,0,0,0,1.78-.282,2.377,2.377,0,0,0,.317-1.49C1058.923,197.688,1058.252,197.7,1057.653,197.958Z" transform="translate(-843.671 -105.206)" fill="#2384c5"/>
    <path id="path32" d="M74,194.36c4.112.052,8.226.007,12.338.022,4.261-.011,8.523.021,12.785-.017.942,1.478,1.838,2.986,2.756,4.478a9.666,9.666,0,0,0,.921,1.387c-.1-1.949-.246-3.893-.331-5.842,4.636-.027,9.273.017,13.909-.021.02,2.06,0,4.12.008,6.18q-21.2.015-42.4,0c.013-2.062-.015-4.123.014-6.186Z" transform="translate(-0.003 -105.649)" fill="#2384c5"/>
    <path id="path34" d="M404,194.37c4.838.048,9.677.011,14.515.017,0,2.064.017,4.128-.008,6.19-4.841-.036-9.681.01-14.521-.022C404,198.492,403.976,196.431,404,194.37Z" transform="translate(-283.674 -105.657)" fill="#2384c5"/>
    <path id="path36" d="M526.947,195.266c.119-.285.1-.844.546-.764,5.366,0,10.732-.022,16.1.01a8.406,8.406,0,0,0-2.632,4.116,11.7,11.7,0,0,0-.344,2.046c-4.884-.01-9.768,0-14.653-.007A23.7,23.7,0,0,1,526.947,195.266Z" transform="translate(-388.52 -105.764)" fill="#2384c5"/>
    <path id="path38" d="M931.48,194.98c.608,0,1.217,0,1.828.01,0,2.173-.007,4.347,0,6.52-.611.007-1.22,0-1.829,0C931.483,199.331,931.49,197.156,931.48,194.98Z" transform="translate(-737.109 -106.182)" fill="#2384c5"/>
    <path id="path40" d="M73.988,250h42.1c.111,1.023.125,2.055.212,3.082a16.031,16.031,0,0,1,.06,1.925c-8.482-.059-16.969.022-25.45-.041-.943-1.46-1.772-3-2.681-4.481l-.164-.091c.2,1.526.2,3.072.387,4.6-4.817-.007-9.634-.021-14.451.007C73.969,253.334,74,251.666,73.988,250Z" transform="translate(0 -153.477)" fill="#2384c5"/>
    <path id="path42" d="M403.993,250q7.272,0,14.543,0c-.027,1.659-.014,3.32,0,4.98-4.842.021-9.686-.013-14.528.017C403.978,253.331,404,251.666,403.993,250Z" transform="translate(-283.675 -153.477)" fill="#2384c5"/>
    <path id="path44" d="M526.32,249.994q7.4-.017,14.789,0a7.9,7.9,0,0,0,1.609,3.632c.369.489.851.876,1.257,1.334-5.6.036-11.2-.025-16.8.032A19.506,19.506,0,0,1,526.32,249.994Z" transform="translate(-388.83 -153.463)" fill="#2384c5"/>
    <path id="path46" d="M864.249,251.821c.67-.6,1.63-.432,2.453-.41-.007.491-.006.984-.014,1.476-.181-.039-.359-.081-.536-.125-.166.108-.511.108-.491.375a2.776,2.776,0,0,0-.007.611,6.257,6.257,0,0,0,1.113.029c0,.421-.006.842,0,1.265-.375,0-.75,0-1.122,0q-.006,2.636,0,5.273c-.607,0-1.213-.007-1.818,0-.014-1.759.007-3.518-.014-5.277l-.906.006c-.006-.418-.008-.835-.014-1.254.306-.008.614-.011.922-.014A2.885,2.885,0,0,1,864.249,251.821Z" transform="translate(-678.148 -154.657)" fill="#2384c5"/>
    <path id="path48" d="M791.508,251.99c.622,0,1.245,0,1.87,0,0,2.951.027,5.9-.008,8.853-.625,0-1.25-.008-1.874,0C791.5,257.895,791.472,254.941,791.508,251.99Z" transform="translate(-616.771 -155.188)" fill="#2384c5"/>
    <path id="path50" d="M1136.46,251.489c.588,0,1.178,0,1.769.006,0,.536,0,1.073-.013,1.609-.585,0-1.171,0-1.755,0C1136.474,252.565,1136.47,252.028,1136.46,251.489Z" transform="translate(-913.311 -154.757)" fill="#2384c5"/>
    <path id="path52" d="M1102.415,255.43q.866.008,1.735.011c0,.609-.007,1.22.007,1.829.345,0,.692-.01,1.04-.013.006.424.006.848,0,1.272-.351,0-.7,0-1.047-.006.014,1.283-.044,2.569.027,3.852a2.192,2.192,0,0,0,1.025.124c0,.449,0,.9-.007,1.351a3.851,3.851,0,0,1-2.478-.386c-.439-.42-.3-1.092-.326-1.637.007-1.094-.006-2.189.007-3.282-.3-.02-.609-.022-.911-.027-.01-.416-.013-.833-.007-1.248.291-.042.643.107.9-.077.032-.588-.01-1.176.031-1.763Z" transform="translate(-883.242 -158.145)" fill="#2384c5"/>
    <path id="path54" d="M817.519,267.169a2.867,2.867,0,0,1,2.693.267,1.915,1.915,0,0,1,.688,1.629c-.007,1.551.007,3.1-.007,4.655-.607-.034-1.213-.032-1.82-.014,0-1.494.024-2.989-.01-4.481-.139-.988-1.693-1.035-2.082-.206a2.026,2.026,0,0,0-.225.889c-.014,1.272.025,2.542-.02,3.813-.6-.027-1.195-.028-1.791-.03-.036-2.193.007-4.386-.025-6.579.594-.017,1.189-.015,1.783,0-.013.261-.034.522-.052.783a9.7,9.7,0,0,1,.868-.723Z" transform="translate(-636.913 -168.051)" fill="#2384c5"/>
    <path id="path56" d="M895.239,266.684a4.2,4.2,0,0,1,2.938.312,3.457,3.457,0,0,1,1.474,2.411,4.1,4.1,0,0,1-.729,3.051,3.269,3.269,0,0,1-2.764,1.115,3.359,3.359,0,0,1-2.267-.889,4.039,4.039,0,0,1-.469-4.578,2.73,2.73,0,0,1,1.817-1.421m.715,1.422a1.375,1.375,0,0,0-.973.869,2.953,2.953,0,0,0,.093,2.392,1.513,1.513,0,0,0,2.168.386,2.4,2.4,0,0,0,.6-1.619,2.291,2.291,0,0,0-.569-1.69A1.388,1.388,0,0,0,895.953,268.106Z" transform="translate(-703.963 -167.707)" fill="#2384c5"/>
    <path id="path58" d="M950.775,267.142a2.718,2.718,0,0,1,1.463-.372c.031.619.018,1.238.02,1.857-.553.021-1.217-.136-1.638.324a1.941,1.941,0,0,0-.467,1.5c-.013,1.035.008,2.071-.018,3.107-.58,0-1.158-.01-1.737-.01,0-2.2.03-4.4-.017-6.594.559-.01,1.119-.007,1.68-.01.016.327.021.656.039.984A4.329,4.329,0,0,1,950.775,267.142Z" transform="translate(-751.636 -167.893)" fill="#2384c5"/>
    <path id="path60" d="M984.186,267.11a2.087,2.087,0,0,1,2.627.831,2.427,2.427,0,0,1,2.573-.9,1.92,1.92,0,0,1,1.49,1.751q-.021,2.451-.007,4.905c-.608,0-1.216-.006-1.822-.014-.006-1.45,0-2.9,0-4.351a.826.826,0,0,0-.914-.844,1.06,1.06,0,0,0-1.06,1.133c.008,1.352.007,2.7.006,4.056-.609.025-1.219.021-1.826.008.014-1.31-.006-2.621.011-3.931a1.306,1.306,0,0,0-.237-.957,1,1,0,0,0-1.734.556c-.013,1.447,0,2.9-.006,4.345-.607,0-1.213-.006-1.818,0,.013-2.2-.044-4.408.015-6.61a13.584,13.584,0,0,1,1.674.048c.006.258-.018.517-.018.775.327-.293.6-.692,1.049-.8Z" transform="translate(-780.067 -168.044)" fill="#2384c5"/>
    <path id="path62" d="M1056.232,267.614a3.849,3.849,0,0,1,3.01-.591,2.467,2.467,0,0,1,1.7.886,3.427,3.427,0,0,1,.253,1.855c.011.99-.03,1.981.021,2.969a2.2,2.2,0,0,0,.427.922,11.023,11.023,0,0,1-2,.022c-.128-.182-.077-.431-.122-.636a4,4,0,0,1-1.548.781,2.693,2.693,0,0,1-1.815-.288,2.056,2.056,0,0,1-.668-2.461,2.164,2.164,0,0,1,1.752-1.258,6.113,6.113,0,0,0,2.027-.43c.371-.257.1-.861-.3-.913a2.388,2.388,0,0,0-1.254.052c-.271.154-.349.47-.46.737-.57.015-1.14.025-1.709-.006.014-.181.032-.361.052-.541a2.446,2.446,0,0,1,.623-1.1m1.563,3.369a.84.84,0,0,0-.521,1.279c.448.538,1.254.312,1.734-.06s.426-1.074.468-1.63A9.748,9.748,0,0,1,1057.795,270.984Z" transform="translate(-843.592 -168.051)" fill="#2384c5"/>
    <path id="path64" d="M1157.079,267.216a3.871,3.871,0,0,1,3.41.274,2.662,2.662,0,0,1,.959,2c-.608-.01-1.217,0-1.824-.02a1.192,1.192,0,0,0-.717-.955,1.43,1.43,0,0,0-1.068.15,2.035,2.035,0,0,0-.664,1.657,2.536,2.536,0,0,0,.455,1.725,1.45,1.45,0,0,0,1.327.284c.441-.18.566-.682.663-1.1.6,0,1.192,0,1.788.01a2.863,2.863,0,0,1-1.461,2.329,3.836,3.836,0,0,1-3.034.031c-1.4-.643-1.7-2.387-1.548-3.767A3.058,3.058,0,0,1,1157.079,267.216Z" transform="translate(-929.53 -168.044)" fill="#2384c5"/>
    <path id="path66" d="M1204.413,267.156a4.594,4.594,0,0,1,2.166-.216,2.574,2.574,0,0,1,1.822.957,3.023,3.023,0,0,1,.374,1.2c-.557.008-1.116-.02-1.671.036-.182-.3-.33-.678-.7-.776-.507-.175-1.3-.18-1.539.4a.439.439,0,0,0,.262.439c1.081.442,2.4.371,3.315,1.186a1.976,1.976,0,0,1-.451,3.021,4.824,4.824,0,0,1-3.622.227,2.152,2.152,0,0,1-1.466-2.138c.569-.017,1.141.025,1.708-.048a4.445,4.445,0,0,0,.355.729,2.039,2.039,0,0,0,1.833.192.467.467,0,0,0,.093-.854c-1.046-.473-2.29-.438-3.253-1.109a1.49,1.49,0,0,1-.515-1.379,2.019,2.019,0,0,1,1.292-1.871Z" transform="translate(-970.42 -168.016)" fill="#2384c5"/>
    <path id="path68" d="M1136.43,268c.59,0,1.181,0,1.772.007-.032,2.2.022,4.4-.025,6.6-.578,0-1.157-.01-1.734-.01C1136.436,272.4,1136.462,270.2,1136.43,268Z" transform="translate(-913.285 -168.945)" fill="#2384c5"/>
    <path id="path70" d="M74.006,296.91c4.839.032,9.68-.015,14.521.027a29.957,29.957,0,0,0,.087,3.215H74C74,299.071,73.993,297.99,74.006,296.91Z" transform="translate(-0.011 -193.801)" fill="#2384c5"/>
    <path id="path72" d="M202.44,296.906c8.117,0,16.235.024,24.352-.006.029,1.081.007,2.162.014,3.243q-10.955,0-21.91,0c-.459.091-.592-.43-.817-.712C203.534,298.59,202.975,297.755,202.44,296.906Z" transform="translate(-110.42 -193.793)" fill="#2384c5"/>
    <path id="path74" d="M404.006,296.91c4.839.038,9.68-.02,14.519.025.013,1.071-.006,2.142.006,3.214q-7.265.011-14.532,0C404,299.071,403.993,297.99,404.006,296.91Z" transform="translate(-283.681 -193.801)" fill="#2384c5"/>
    <path id="path76" d="M536.39,296.95c9.5.024,19.008-.022,28.511.02.013,1.071-.006,2.142.006,3.214q-13.478.008-26.957,0A19.2,19.2,0,0,1,536.39,296.95Z" transform="translate(-397.486 -193.836)" fill="#2384c5"/>
    <path id="path78" d="M792.441,326.717a4.852,4.852,0,0,1,3.128.042,3.323,3.323,0,0,1,2.169,2.919c-.632-.084-1.279.022-1.9-.063-.2-.4-.306-.883-.706-1.144a1.994,1.994,0,0,0-2.523.232,3.468,3.468,0,0,0-.751,2.488,3.058,3.058,0,0,0,.755,2.336,1.914,1.914,0,0,0,2.484.19c.428-.278.512-.82.743-1.238a14.538,14.538,0,0,1,1.869-.02,3.716,3.716,0,0,1-1.866,2.849,4.416,4.416,0,0,1-3.7.087,3.784,3.784,0,0,1-2.062-2.53,6.956,6.956,0,0,1,.191-4A3.7,3.7,0,0,1,792.441,326.717Z" transform="translate(-615.387 -219.219)" fill="#2384c5"/>
    <path id="path80" d="M950.388,331.482c.585-.028,1.172-.011,1.76-.008,0,.606,0,1.214,0,1.822.347.006.695,0,1.043-.01.013.431.013.865-.015,1.3-.341-.015-.679-.028-1.018-.038-.025,1.057,0,2.117-.02,3.176a1.645,1.645,0,0,0,.084.706,5.46,5.46,0,0,0,.983.086c-.006.434-.006.868-.017,1.3a3.916,3.916,0,0,1-2.309-.2,1.111,1.111,0,0,1-.486-1.04c-.006-1.227,0-2.456,0-3.682.111-.556-.6-.278-.906-.341-.01-.417-.013-.833-.011-1.248.293-.041.64.1.9-.077C950.414,332.646,950.386,332.063,950.388,331.482Z" transform="translate(-752.579 -223.506)" fill="#2384c5"/>
    <path id="path82" d="M74,332q7.333,0,14.667,0c0,.748.022,1.5-.017,2.246q-7.324-.006-14.65,0Z" transform="translate(-0.012 -223.965)" fill="#2384c5"/>
    <path id="path84" d="M225.21,332.033a9.973,9.973,0,0,1,1.651-.06H246.38v2.246c-6.559.006-13.117-.01-19.676.007C226.18,333.512,225.76,332.728,225.21,332.033Z" transform="translate(-129.993 -223.937)" fill="#2384c5"/>
    <path id="path86" d="M404,332q7.272,0,14.543,0c-.025.747-.015,1.494-.011,2.242q-7.265.01-14.532,0Z" transform="translate(-283.682 -223.963)" fill="#2384c5"/>
    <path id="path88" d="M555.87,332.032a7.844,7.844,0,0,1,1.429-.06q12.183,0,24.364,0c-.025.747-.015,1.494-.011,2.242-7.942.011-15.884-.007-23.825.008C557.1,333.565,556.531,332.754,555.87,332.032Z" transform="translate(-414.231 -223.937)" fill="#2384c5"/>
    <path id="path90" d="M850.8,344.546a3.489,3.489,0,0,1,5.53-.567,4.223,4.223,0,0,1,.675,2.832c-1.591-.013-3.181.025-4.771-.014a1.492,1.492,0,0,0,.858,1.394,1.544,1.544,0,0,0,2.053-.611c.6.006,1.207,0,1.811.023a2.825,2.825,0,0,1-2.051,2.052,3.945,3.945,0,0,1-3.454-.644,2.833,2.833,0,0,1-.97-2.065,4.959,4.959,0,0,1,.319-2.4m2.217-.062a1.707,1.707,0,0,0-.751,1.126c.964.015,1.932.032,2.9-.015A1.473,1.473,0,0,0,853.016,344.485Z" transform="translate(-667.474 -233.301)" fill="#2384c5"/>
    <path id="path92" d="M904.378,343.157a2.845,2.845,0,0,1,2.8.149,2.232,2.232,0,0,1,.781,1.814c0,1.475,0,2.952-.007,4.428-.606-.008-1.213-.007-1.819,0q0-1.859,0-3.719a2.251,2.251,0,0,0-.178-1.032c-.168-.313-.546-.383-.848-.5-.375.1-.835.146-1.053.515a2.174,2.174,0,0,0-.314,1.143c0,1.2.006,2.394,0,3.591-.585-.006-1.17.01-1.752-.011,0-2.173,0-4.345,0-6.517h1.673c.011.268.025.536.053.8a5.374,5.374,0,0,1,.66-.665Z" transform="translate(-711.759 -233.298)" fill="#2384c5"/>
    <path id="path94" d="M985.006,343.025a2.7,2.7,0,0,1,1.209-.215c.027.626.017,1.252.014,1.878-.187-.039-.371-.081-.553-.126a1.578,1.578,0,0,0-1.429.95,27.026,27.026,0,0,0-.115,3.991c-.588,0-1.175,0-1.76.006-.008-2.175.036-4.351-.021-6.524.56-.011,1.122-.008,1.683-.011.015.33.025.661.053.991A2.477,2.477,0,0,1,985.006,343.025Z" transform="translate(-780.837 -233.257)" fill="#2384c5"/>
    <path id="path96" d="M1012.713,343.926a3.094,3.094,0,0,1,2.625-1.05,2.949,2.949,0,0,1,2.694,1.384,4.2,4.2,0,0,1,.461,2.555c-1.584.007-3.167-.02-4.75.024a1.594,1.594,0,0,0,.9,1.373,1.507,1.507,0,0,0,1.995-.605q.91-.034,1.822-.014a2.711,2.711,0,0,1-2.073,2.081,4.079,4.079,0,0,1-2.985-.366,2.761,2.761,0,0,1-1.38-2.144,4.127,4.127,0,0,1,.692-3.237m1.08,1.7c.96,0,1.921,0,2.881-.006a1.389,1.389,0,0,0-1.609-1.278A1.456,1.456,0,0,0,1013.792,345.625Z" transform="translate(-806.287 -233.305)" fill="#2384c5"/>
    <path id="path98" d="M74,359.426c4.9,0,9.8.017,14.693-.006a8.12,8.12,0,0,1,.114,1.692c-4.936.027-9.872-.014-14.807.02Q73.972,360.278,74,359.426Z" transform="translate(-0.001 -247.535)" fill="#2384c5"/>
    <path id="path100" d="M243.42,359.45c6.205.027,12.412-.025,18.617.027-.006.562.007,1.125-.027,1.686-5.7-.042-11.41-.006-17.115-.018-.157-.02-.373.045-.469-.124C244.067,360.513,243.75,359.977,243.42,359.45Z" transform="translate(-145.647 -247.561)" fill="#2384c5"/>
    <path id="path102" d="M404,359.461q7.257.006,14.512,0c.013.564,0,1.13.01,1.695-4.839.008-9.679-.02-14.517.014C403.975,360.6,403.978,360.03,404,359.461Z" transform="translate(-283.667 -247.57)" fill="#2384c5"/>
    <path id="path104" d="M582.92,359.492c2.155-.09,4.316-.014,6.472-.039q7.754,0,15.508,0c.008.564,0,1.129.007,1.695q-9.662-.006-19.322,0a.864.864,0,0,1-.6-.168A23.05,23.05,0,0,1,582.92,359.492Z" transform="translate(-437.484 -247.559)" fill="#2384c5"/>
    <path id="path106" d="M623.93,382.81c5.4.067,10.812,0,16.218.036,0,.322.008.644.011.967q-6.57.015-13.141,0A8.839,8.839,0,0,1,623.93,382.81Z" transform="translate(-472.736 -267.642)" fill="#2384c5"/>
    <path id="path108" d="M74.02,382.891c4.953.042,9.906.025,14.858,0a6.639,6.639,0,0,1-.013,1.133c-4.947.018-9.9,0-14.846.011Q74.008,383.461,74.02,382.891Z" transform="translate(-0.024 -267.71)" fill="#2384c5"/>
    <path id="path110" d="M258.97,382.927c5.47-.048,10.944.027,16.415-.037a6.651,6.651,0,0,1-.013,1.134q-7.79.015-15.583,0C259.418,383.772,259.245,383.283,258.97,382.927Z" transform="translate(-159.014 -267.71)" fill="#2384c5"/>
    <path id="path112" d="M403.99,383.046c4.844-.006,9.687-.014,14.531,0,0,.375,0,.748,0,1.123-4.839-.029-9.68-.011-14.519-.01Q403.989,383.6,403.99,383.046Z" transform="translate(-283.674 -267.839)" fill="#2384c5"/>
  </g>
</svg>
