<svg xmlns="http://www.w3.org/2000/svg" width="67.373" height="56.219" viewBox="0 0 67.373 56.219">
  <g id="Group_44598" data-name="Group 44598" transform="translate(-933.313 -1306)">
    <g id="Group_44590" data-name="Group 44590">
      <rect id="Rectangle_9106" data-name="Rectangle 9106" width="61.373" height="50.22" rx="7.523" transform="translate(939.313 1306)" fill="#e1fca8"/>
      <rect id="Rectangle_123" data-name="Rectangle 123" width="61.373" height="50.219" rx="7.523" transform="translate(933.313 1312)" fill="#81bc06"/>
    </g>
    <g id="Group_44272" data-name="Group 44272" transform="translate(945.973 1328.607)">
      <path id="Path_7421" data-name="Path 7421" d="M802.085,200.532a7.721,7.721,0,0,1-2.63-.586q-7.135-2.372-14.269-4.751a2.919,2.919,0,0,1-.736-.362.488.488,0,0,1,.009-.9,2.952,2.952,0,0,1,.787-.373q7.62-2.3,15.245-4.576a5.843,5.843,0,0,1,3.433.011q7.585,2.278,15.17,4.557a3.088,3.088,0,0,1,.833.394.485.485,0,0,1,0,.883,2.833,2.833,0,0,1-.711.355q-7.586,2.53-15.176,5.046A5.71,5.71,0,0,1,802.085,200.532Z" transform="translate(-785.159 -188.734)" fill="#fff"/>
      <path id="Path_7422" data-name="Path 7422" d="M872.4,282.3c0,.1.01.162.01.222q0,3.371,0,6.742a1.04,1.04,0,0,1-.289.778,8.285,8.285,0,0,1-1.189,1.018,13.7,13.7,0,0,1-4.516,1.773,21.755,21.755,0,0,1-11.717-.486,11.181,11.181,0,0,1-3.012-1.447,6.2,6.2,0,0,1-.6-.488,1.755,1.755,0,0,1-.612-1.41c.029-2.118.011-4.236.012-6.354v-.35c.24.078.449.145.657.214,2.782.924,5.566,1.842,8.346,2.774a5.97,5.97,0,0,0,3.9.005q4.342-1.451,8.688-2.89C872.176,282.368,872.273,282.339,872.4,282.3Z" transform="translate(-844.42 -272.341)" fill="#fff"/>
      <path id="Path_7423" data-name="Path 7423" d="M1081.877,266.643v.347c0,1.507-.005,3.013.006,4.52a1.4,1.4,0,0,0,.142.584,9.928,9.928,0,0,1,.91,2.323,2.1,2.1,0,0,1-.386,1.733,4.118,4.118,0,0,1-1.27,1.118.259.259,0,0,1-.209.034,3.368,3.368,0,0,1-1.715-1.971,2.044,2.044,0,0,1,.09-1.269c.26-.681.569-1.344.847-2.018a1.283,1.283,0,0,0,.114-.464q.013-2.092,0-4.184a.307.307,0,0,1,.262-.361C1081.062,266.926,1081.447,266.785,1081.877,266.643Z" transform="translate(-1047.887 -258.352)" fill="#fff"/>
    </g>
  </g>
</svg>
