<svg xmlns="http://www.w3.org/2000/svg" width="67.373" height="56.219" viewBox="0 0 67.373 56.219">
  <g id="Group_44599" data-name="Group 44599" transform="translate(-1189.313 -1306)">
    <g id="Group_44591" data-name="Group 44591">
      <rect id="Rectangle_9107" data-name="Rectangle 9107" width="61.373" height="50.219" rx="7.523" transform="translate(1195.313 1306)" fill="#ffdcf3"/>
      <rect id="Rectangle_123" data-name="Rectangle 123" width="61.373" height="50.219" rx="7.523" transform="translate(1189.313 1312)" fill="#aa2e80"/>
    </g>
    <g id="Group_44297" data-name="Group 44297" transform="translate(1206.129 1321.969)">
      <path id="Path_7424" data-name="Path 7424" d="M1006.494-28.625c5.388-1.282,8.663-4.534,9.5-10.123.118.14.2.244.293.347q4.338,5.044,8.676,10.088,1.936,2.25,3.87,4.5a.384.384,0,0,1,.066.291,12.7,12.7,0,0,1-5.586,8.073,29.466,29.466,0,0,1-3.73,2.082c-.143.069-.209.018-.294-.08-2-2.288-4.031-4.546-5.988-6.868-2.252-2.671-4.437-5.4-6.651-8.1C1006.6-28.475,1006.558-28.54,1006.494-28.625Z" transform="translate(-1006.214 38.748)" fill="#fff"/>
      <path id="Path_7425" data-name="Path 7425" d="M1000.222,212.592q.707.844,1.415,1.688,4.181,4.977,8.359,9.955c.925,1.106,1.826,2.231,2.732,3.353a.478.478,0,0,1,.089.294c-.027.778-.079,1.555-.1,2.334-.018.742,0,1.486,0,2.279-.072-.085-.126-.145-.176-.207-2.271-2.893-4.551-5.779-6.81-8.681-1.812-2.327-3.6-4.674-5.4-7.009a.7.7,0,0,1-.161-.46c.008-1.1,0-2.193,0-3.289v-.238Z" transform="translate(-1000.169 -201.484)" fill="#fff"/>
      <path id="Path_7426" data-name="Path 7426" d="M1316.827,27.4a16.834,16.834,0,0,1-3.015,3.9,23.182,23.182,0,0,1-7.116,4.629c-1.065.456-2.17.82-3.257,1.224-.086.032-.177.051-.266.077l-.036-.057a5.066,5.066,0,0,1,.6-.5c.44-.265.9-.5,1.353-.739a16.475,16.475,0,0,0,6.486-5.828,12.6,12.6,0,0,0,1.649-4.274.352.352,0,0,0-.091-.335q-2.846-3.3-5.689-6.606-1.918-2.222-3.849-4.433c-.034-.039-.065-.079-.128-.157l1.023-1.274Z" transform="translate(-1289.747 -10.741)" fill="#fff"/>
      <path id="Path_7427" data-name="Path 7427" d="M1315.806,486.035a2.544,2.544,0,0,1,.031,1.192c-.122.679-.268,1.355-.417,2.029-.015.067-.114.139-.189.165-1.643.574-3.289,1.139-4.933,1.71a61.6,61.6,0,0,0-8.213,3.352c-.044.023-.093.036-.191.073a7.754,7.754,0,0,1-.1-.842c-.007-.573.01-1.147.033-1.72,0-.061.1-.148.171-.173q1.672-.592,3.348-1.17A71.033,71.033,0,0,0,1312.3,488a23.586,23.586,0,0,0,3.344-1.87C1315.693,486.1,1315.744,486.073,1315.806,486.035Z" transform="translate(-1288.46 -462.841)" fill="#fff"/>
      <path id="Path_7428" data-name="Path 7428" d="M1317.668,393.649a16.581,16.581,0,0,1-2.561,2.437,27.185,27.185,0,0,1-7.113,3.834,42.669,42.669,0,0,1-4.67,1.452,1.071,1.071,0,0,1,.632-.595c.314-.12.651-.176.967-.292.716-.262,1.439-.511,2.133-.824a24.9,24.9,0,0,0,7.792-5.38c.438-.455.841-.944,1.251-1.426.089-.1.166-.156.3-.092a3.092,3.092,0,0,1,.472.231C1317.138,393.194,1317.39,393.42,1317.668,393.649Z" transform="translate(-1289.926 -373.666)" fill="#fff"/>
    </g>
  </g>
</svg>
